<svg xmlns="http://www.w3.org/2000/svg" xmlns:xlink="http://www.w3.org/1999/xlink" width="25px" height="25px" viewBox="0 0 25 25" version="1.1"><defs><filter id="alpha" filterUnits="objectBoundingBox" x="0%" y="0%" width="100%" height="100%"><feColorMatrix type="matrix" in="SourceGraphic" values="0 0 0 0 1 0 0 0 0 1 0 0 0 0 1 0 0 0 1 0"></feColorMatrix></filter><mask id="mask0"><g filter="url(#alpha)"><rect x="0" y="0" width="25" height="25" style="fill: rgb(0, 0, 0); fill-opacity: 0.737255; stroke: none;"></rect></g></mask><clipPath id="clip1"><rect x="0" y="0" width="25" height="25"></rect></clipPath><g id="surface5" clip-path="url(#clip1)"><path style="stroke: none; fill-rule: evenodd; fill: rgb(73, 72, 72); fill-opacity: 1;" d="M 9.6875 3.269531 C 9.53125 3.351562 9.367188 3.40625 9.1875 3.4375 C 9.335938 3.339844 9.503906 3.285156 9.6875 3.269531 Z M 9.6875 3.269531 "></path></g><mask id="mask1"><g filter="url(#alpha)"><rect x="0" y="0" width="25" height="25" style="fill: rgb(0, 0, 0); fill-opacity: 0.737255; stroke: none;"></rect></g></mask><clipPath id="clip2"><rect x="0" y="0" width="25" height="25"></rect></clipPath><g id="surface8" clip-path="url(#clip2)"><path style="stroke: none; fill-rule: evenodd; fill: rgb(87, 86, 87); fill-opacity: 1;" d="M 21.9375 10.9375 C 21.996094 11.136719 22.023438 11.34375 22.019531 11.5625 C 21.964844 11.363281 21.933594 11.15625 21.9375 10.9375 Z M 21.9375 10.9375 "></path></g><mask id="mask2"><g filter="url(#alpha)"><rect x="0" y="0" width="25" height="25" style="fill: rgb(0, 0, 0); fill-opacity: 0.627451; stroke: none;"></rect></g></mask><clipPath id="clip3"><rect x="0" y="0" width="25" height="25"></rect></clipPath><g id="surface11" clip-path="url(#clip3)"><path style="stroke: none; fill-rule: evenodd; fill: rgb(85, 85, 85); fill-opacity: 1;" d="M 2.980469 10.980469 C 2.964844 11.320312 2.921875 11.65625 2.855469 11.980469 C 2.859375 11.636719 2.902344 11.300781 2.980469 10.980469 Z M 2.980469 10.980469 "></path></g><mask id="mask3"><g filter="url(#alpha)"><rect x="0" y="0" width="25" height="25" style="fill: rgb(0, 0, 0); fill-opacity: 0.635294; stroke: none;"></rect></g></mask><clipPath id="clip4"><rect x="0" y="0" width="25" height="25"></rect></clipPath><g id="surface14" clip-path="url(#clip4)"><path style="stroke: none; fill-rule: evenodd; fill: rgb(100, 98, 99); fill-opacity: 1;" d="M 3.019531 14.3125 C 3.089844 14.394531 3.117188 14.492188 3.105469 14.605469 C 3.058594 14.515625 3.03125 14.417969 3.019531 14.3125 Z M 3.019531 14.3125 "></path></g></defs><g id="surface1"><path style="stroke: none; fill-rule: evenodd; fill: rgb(68, 68, 68); fill-opacity: 1;" d="M 11.5625 2.894531 C 11.367188 2.964844 11.15625 2.992188 10.9375 2.980469 C 11.136719 2.921875 11.34375 2.894531 11.5625 2.894531 Z M 11.5625 2.894531 "></path><path style="stroke: none; fill-rule: evenodd; fill: rgb(15, 13, 14); fill-opacity: 1;" d="M 15.269531 3.269531 C 15.296875 3.351562 15.351562 3.398438 15.4375 3.417969 C 15.335938 3.449219 15.34375 3.484375 15.457031 3.519531 C 15.480469 3.480469 15.515625 3.449219 15.5625 3.4375 C 15.65625 3.46875 15.753906 3.480469 15.855469 3.480469 C 16.140625 3.566406 16.417969 3.679688 16.6875 3.8125 C 16.683594 3.878906 16.710938 3.929688 16.769531 3.957031 C 16.730469 3.972656 16.703125 4.003906 16.6875 4.042969 C 16.757812 4.125 16.839844 4.195312 16.9375 4.25 C 16.832031 4.285156 16.75 4.257812 16.6875 4.167969 C 16.546875 4.132812 16.40625 4.140625 16.269531 4.1875 C 16.320312 4.226562 16.375 4.238281 16.4375 4.230469 C 16.4375 4.3125 16.4375 4.394531 16.4375 4.480469 C 16.285156 4.480469 16.132812 4.480469 15.980469 4.480469 C 15.632812 4.339844 15.28125 4.214844 14.917969 4.105469 C 14.878906 4.121094 14.847656 4.148438 14.832031 4.1875 C 14.765625 4.421875 14.703125 4.660156 14.644531 4.894531 C 14.585938 4.980469 14.558594 5.078125 14.5625 5.1875 C 14.488281 5.332031 14.445312 5.484375 14.4375 5.644531 C 16.878906 6.425781 18.496094 8.039062 19.292969 10.480469 C 20.019531 13.589844 19.152344 16.152344 16.6875 18.167969 C 16.007812 18.644531 15.273438 19.011719 14.480469 19.269531 C 14.433594 19.335938 14.425781 19.40625 14.457031 19.480469 C 14.617188 19.914062 14.734375 20.359375 14.8125 20.8125 C 15.105469 20.765625 15.382812 20.683594 15.644531 20.5625 C 15.558594 20.628906 15.476562 20.707031 15.394531 20.792969 C 15.144531 20.828125 14.894531 20.875 14.644531 20.9375 C 14.78125 20.980469 14.921875 20.992188 15.0625 20.980469 C 15.0625 21.035156 15.0625 21.089844 15.0625 21.144531 C 15.144531 21.171875 15.230469 21.203125 15.3125 21.230469 C 15.300781 21.289062 15.316406 21.347656 15.355469 21.394531 C 15.433594 21.421875 15.5 21.394531 15.5625 21.3125 C 15.601562 21.359375 15.636719 21.359375 15.667969 21.3125 C 15.6875 21.335938 15.691406 21.363281 15.6875 21.394531 C 15.625 21.519531 15.535156 21.546875 15.417969 21.480469 C 15.316406 21.570312 15.199219 21.625 15.0625 21.644531 C 14.984375 21.597656 14.941406 21.625 14.9375 21.730469 C 14.140625 21.964844 13.320312 22.078125 12.480469 22.0625 C 11.554688 22.082031 10.652344 21.957031 9.769531 21.6875 C 9.730469 21.613281 9.683594 21.542969 9.625 21.480469 C 9.546875 21.535156 9.527344 21.527344 9.5625 21.457031 C 9.523438 21.4375 9.480469 21.429688 9.4375 21.4375 C 9.4375 21.394531 9.4375 21.355469 9.4375 21.3125 C 9.5 21.324219 9.554688 21.308594 9.605469 21.269531 C 9.582031 21.09375 9.484375 20.984375 9.3125 20.9375 C 9.382812 20.859375 9.464844 20.804688 9.5625 20.769531 C 9.480469 20.742188 9.394531 20.714844 9.3125 20.6875 C 9.328125 20.660156 9.339844 20.632812 9.355469 20.605469 C 9.515625 20.6875 9.683594 20.714844 9.855469 20.6875 C 10 20.289062 10.125 19.886719 10.230469 19.480469 C 10.371094 19.230469 10.285156 19.117188 9.980469 19.144531 C 6.992188 17.863281 5.453125 15.585938 5.355469 12.3125 C 5.453125 10.023438 6.398438 8.167969 8.1875 6.75 C 8.769531 6.339844 9.394531 6.007812 10.0625 5.75 C 10.128906 5.730469 10.199219 5.722656 10.269531 5.730469 C 10.15625 5.222656 10.019531 4.722656 9.855469 4.230469 C 9.796875 4.132812 9.726562 4.132812 9.644531 4.230469 C 9.332031 4.320312 9.027344 4.433594 8.730469 4.5625 C 8.664062 4.433594 8.632812 4.296875 8.644531 4.144531 C 8.707031 4.15625 8.761719 4.144531 8.8125 4.105469 C 8.671875 4.035156 8.535156 3.964844 8.394531 3.894531 C 8.339844 3.964844 8.269531 3.988281 8.1875 3.957031 C 8.3125 3.945312 8.328125 3.914062 8.230469 3.875 C 8.296875 3.859375 8.367188 3.847656 8.4375 3.832031 C 8.402344 3.765625 8.421875 3.757812 8.5 3.8125 C 8.519531 3.769531 8.542969 3.726562 8.5625 3.6875 C 8.753906 3.570312 8.960938 3.488281 9.1875 3.4375 C 9.367188 3.40625 9.53125 3.351562 9.6875 3.269531 C 10.085938 3.121094 10.503906 3.023438 10.9375 2.980469 C 11.15625 2.992188 11.367188 2.964844 11.5625 2.894531 C 12.824219 2.761719 14.058594 2.886719 15.269531 3.269531 Z M 15.269531 3.269531 "></path><use xlink:href="#surface5" mask="url(#mask0)"></use><path style="stroke: none; fill-rule: evenodd; fill: rgb(58, 56, 57); fill-opacity: 1;" d="M 15.269531 3.269531 C 15.480469 3.308594 15.675781 3.378906 15.855469 3.480469 C 15.753906 3.480469 15.65625 3.46875 15.5625 3.4375 C 15.515625 3.449219 15.480469 3.480469 15.457031 3.519531 C 15.34375 3.484375 15.335938 3.449219 15.4375 3.417969 C 15.351562 3.398438 15.296875 3.351562 15.269531 3.269531 Z M 15.269531 3.269531 "></path><path style="stroke: none; fill-rule: evenodd; fill: rgb(149, 134, 81); fill-opacity: 1;" d="M 9.855469 4.230469 C 9.785156 4.230469 9.714844 4.230469 9.644531 4.230469 C 9.726562 4.132812 9.796875 4.132812 9.855469 4.230469 Z M 9.855469 4.230469 "></path><path style="stroke: none; fill-rule: evenodd; fill: rgb(224, 199, 78); fill-opacity: 1;" d="M 9.644531 4.230469 C 9.714844 4.230469 9.785156 4.230469 9.855469 4.230469 C 10.019531 4.722656 10.15625 5.222656 10.269531 5.730469 C 10.199219 5.722656 10.128906 5.730469 10.0625 5.75 C 9.394531 6.007812 8.769531 6.339844 8.1875 6.75 C 6.398438 8.167969 5.453125 10.023438 5.355469 12.3125 C 5.453125 15.585938 6.992188 17.863281 9.980469 19.144531 C 10.039062 19.222656 10.121094 19.25 10.230469 19.230469 C 10.230469 19.3125 10.230469 19.394531 10.230469 19.480469 C 10.125 19.886719 10 20.289062 9.855469 20.6875 C 9.683594 20.714844 9.515625 20.6875 9.355469 20.605469 C 7.0625 19.679688 5.414062 18.082031 4.417969 15.8125 C 4.164062 15.195312 3.992188 14.554688 3.894531 13.894531 C 3.910156 13.769531 3.882812 13.65625 3.8125 13.5625 C 3.507812 10.53125 4.464844 7.984375 6.6875 5.917969 C 7.320312 5.386719 8 4.933594 8.730469 4.5625 C 9.027344 4.433594 9.332031 4.320312 9.644531 4.230469 Z M 9.644531 4.230469 "></path><path style="stroke: none; fill-rule: evenodd; fill: rgb(225, 199, 78); fill-opacity: 1;" d="M 15.980469 4.480469 C 18.925781 5.894531 20.644531 8.226562 21.125 11.480469 C 21.378906 14.660156 20.285156 17.265625 17.855469 19.292969 C 17.167969 19.800781 16.429688 20.226562 15.644531 20.5625 C 15.382812 20.683594 15.105469 20.765625 14.8125 20.8125 C 14.734375 20.359375 14.617188 19.914062 14.457031 19.480469 C 14.425781 19.40625 14.433594 19.335938 14.480469 19.269531 C 15.273438 19.011719 16.007812 18.644531 16.6875 18.167969 C 19.152344 16.152344 20.019531 13.589844 19.292969 10.480469 C 18.496094 8.039062 16.878906 6.425781 14.4375 5.644531 C 14.445312 5.484375 14.488281 5.332031 14.5625 5.1875 C 14.621094 5.105469 14.648438 5.007812 14.644531 4.894531 C 14.703125 4.660156 14.765625 4.421875 14.832031 4.1875 C 14.847656 4.148438 14.878906 4.121094 14.917969 4.105469 C 15.28125 4.214844 15.632812 4.339844 15.980469 4.480469 Z M 15.980469 4.480469 "></path><path style="stroke: none; fill-rule: evenodd; fill: rgb(145, 132, 62); fill-opacity: 1;" d="M 14.644531 4.894531 C 14.648438 5.007812 14.621094 5.105469 14.5625 5.1875 C 14.558594 5.078125 14.585938 4.980469 14.644531 4.894531 Z M 14.644531 4.894531 "></path><path style="stroke: none; fill-rule: evenodd; fill: rgb(18, 16, 17); fill-opacity: 1;" d="M 8.5625 3.6875 C 8.542969 3.726562 8.519531 3.769531 8.5 3.8125 C 8.421875 3.757812 8.402344 3.765625 8.4375 3.832031 C 8.367188 3.847656 8.296875 3.859375 8.230469 3.875 C 8.328125 3.914062 8.3125 3.945312 8.1875 3.957031 C 8.269531 3.988281 8.339844 3.964844 8.394531 3.894531 C 8.535156 3.964844 8.671875 4.035156 8.8125 4.105469 C 8.761719 4.144531 8.707031 4.15625 8.644531 4.144531 C 8.632812 4.296875 8.664062 4.433594 8.730469 4.5625 C 8 4.933594 7.320312 5.386719 6.6875 5.917969 C 4.464844 7.984375 3.507812 10.53125 3.8125 13.5625 C 3.816406 13.683594 3.84375 13.796875 3.894531 13.894531 C 3.992188 14.554688 4.164062 15.195312 4.417969 15.8125 C 5.414062 18.082031 7.0625 19.679688 9.355469 20.605469 C 9.339844 20.632812 9.328125 20.660156 9.3125 20.6875 C 9.394531 20.714844 9.480469 20.742188 9.5625 20.769531 C 9.464844 20.804688 9.382812 20.859375 9.3125 20.9375 C 9.484375 20.984375 9.582031 21.09375 9.605469 21.269531 C 9.554688 21.308594 9.5 21.324219 9.4375 21.3125 C 9.4375 21.355469 9.4375 21.394531 9.4375 21.4375 C 9.480469 21.429688 9.523438 21.4375 9.5625 21.457031 C 9.527344 21.527344 9.546875 21.535156 9.625 21.480469 C 9.683594 21.542969 9.730469 21.613281 9.769531 21.6875 C 6.660156 20.710938 4.53125 18.695312 3.375 15.644531 C 3.253906 15.304688 3.164062 14.957031 3.105469 14.605469 C 3.117188 14.492188 3.089844 14.394531 3.019531 14.3125 C 3.019531 14.285156 3.019531 14.257812 3.019531 14.230469 C 3.019531 14.148438 3.03125 14.074219 3.0625 14 C 3.007812 13.898438 2.964844 13.792969 2.9375 13.6875 C 2.902344 13.570312 2.882812 13.445312 2.875 13.3125 C 2.855469 12.867188 2.847656 12.425781 2.855469 11.980469 C 2.921875 11.65625 2.964844 11.320312 2.980469 10.980469 C 3.484375 7.972656 5.039062 5.6875 7.644531 4.125 C 7.9375 3.945312 8.242188 3.800781 8.5625 3.6875 Z M 8.5625 3.6875 "></path><path style="stroke: none; fill-rule: evenodd; fill: rgb(168, 167, 168); fill-opacity: 1;" d="M 15.1875 8.394531 C 14.9375 8.390625 14.6875 8.402344 14.4375 8.4375 C 14.570312 8.375 14.714844 8.347656 14.875 8.355469 C 14.988281 8.355469 15.089844 8.367188 15.1875 8.394531 Z M 15.1875 8.394531 "></path><path style="stroke: none; fill-rule: evenodd; fill: rgb(252, 252, 252); fill-opacity: 1;" d="M 12.980469 12.019531 C 13.035156 11.820312 13.066406 11.613281 13.0625 11.394531 C 13.070312 10.722656 13.1875 10.070312 13.417969 9.4375 C 13.617188 8.953125 13.957031 8.621094 14.4375 8.4375 C 14.6875 8.402344 14.9375 8.390625 15.1875 8.394531 C 15.867188 8.539062 16.277344 8.957031 16.417969 9.644531 C 16.445312 9.796875 16.46875 9.949219 16.480469 10.105469 C 16.476562 10.320312 16.503906 10.53125 16.5625 10.730469 C 16.707031 12.617188 16.832031 14.503906 16.9375 16.394531 C 16.410156 16.394531 15.882812 16.394531 15.355469 16.394531 C 15.367188 16.25 15.351562 16.109375 15.3125 15.980469 C 15.226562 14.089844 15.125 12.199219 15 10.3125 C 14.9375 10.167969 14.855469 10.152344 14.75 10.269531 C 14.523438 11.882812 14.300781 13.492188 14.082031 15.105469 C 13.96875 15.605469 13.710938 16.015625 13.3125 16.332031 C 12.128906 16.820312 11.328125 16.453125 10.917969 15.230469 C 10.789062 14.472656 10.671875 13.722656 10.5625 12.980469 C 10.566406 12.773438 10.539062 12.578125 10.480469 12.394531 C 10.402344 11.699219 10.3125 11.003906 10.207031 10.3125 C 10.105469 10.148438 10.007812 10.148438 9.917969 10.3125 C 9.789062 12.199219 9.683594 14.089844 9.605469 15.980469 C 9.5625 16.109375 9.550781 16.25 9.5625 16.394531 C 9.035156 16.394531 8.507812 16.394531 7.980469 16.394531 C 8.109375 14.394531 8.242188 12.394531 8.375 10.394531 C 8.40625 9.691406 8.675781 9.101562 9.1875 8.625 C 10.320312 8.089844 11.132812 8.402344 11.625 9.5625 C 11.71875 9.832031 11.789062 10.113281 11.832031 10.394531 C 12 11.828125 12.1875 13.261719 12.394531 14.6875 C 12.542969 14.765625 12.636719 14.722656 12.667969 14.5625 C 12.769531 13.714844 12.871094 12.867188 12.980469 12.019531 Z M 12.980469 12.019531 "></path><path style="stroke: none; fill-rule: evenodd; fill: rgb(18, 16, 17); fill-opacity: 1;" d="M 16.6875 3.8125 C 19.210938 5.097656 20.886719 7.097656 21.707031 9.8125 C 21.816406 10.179688 21.894531 10.554688 21.9375 10.9375 C 21.933594 11.15625 21.964844 11.363281 22.019531 11.5625 C 22.253906 15.378906 20.808594 18.371094 17.6875 20.542969 C 17.566406 20.613281 17.441406 20.675781 17.3125 20.730469 C 17.253906 20.683594 17.183594 20.675781 17.105469 20.707031 C 17.117188 20.722656 17.132812 20.734375 17.144531 20.75 C 17.070312 20.859375 16.972656 20.894531 16.855469 20.855469 C 16.769531 20.9375 16.675781 21 16.5625 21.042969 C 16.609375 21.074219 16.609375 21.109375 16.5625 21.144531 C 16.34375 21.277344 16.105469 21.375 15.855469 21.4375 C 15.796875 21.421875 15.742188 21.410156 15.6875 21.394531 C 15.691406 21.363281 15.6875 21.335938 15.667969 21.3125 C 15.636719 21.359375 15.601562 21.359375 15.5625 21.3125 C 15.5 21.394531 15.433594 21.421875 15.355469 21.394531 C 15.316406 21.347656 15.300781 21.289062 15.3125 21.230469 C 15.230469 21.203125 15.144531 21.171875 15.0625 21.144531 C 15.0625 21.089844 15.0625 21.035156 15.0625 20.980469 C 14.921875 20.992188 14.78125 20.980469 14.644531 20.9375 C 14.894531 20.875 15.144531 20.828125 15.394531 20.792969 C 15.476562 20.707031 15.558594 20.628906 15.644531 20.5625 C 16.429688 20.226562 17.167969 19.800781 17.855469 19.292969 C 20.285156 17.265625 21.378906 14.660156 21.125 11.480469 C 20.644531 8.226562 18.925781 5.894531 15.980469 4.480469 C 16.132812 4.480469 16.285156 4.480469 16.4375 4.480469 C 16.4375 4.394531 16.4375 4.3125 16.4375 4.230469 C 16.375 4.238281 16.320312 4.226562 16.269531 4.1875 C 16.40625 4.140625 16.546875 4.132812 16.6875 4.167969 C 16.75 4.257812 16.832031 4.285156 16.9375 4.25 C 16.839844 4.195312 16.757812 4.125 16.6875 4.042969 C 16.703125 4.003906 16.730469 3.972656 16.769531 3.957031 C 16.710938 3.929688 16.683594 3.878906 16.6875 3.8125 Z M 16.6875 3.8125 "></path><path style="stroke: none; fill-rule: evenodd; fill: rgb(177, 175, 176); fill-opacity: 1;" d="M 16.480469 10.105469 C 16.535156 10.304688 16.566406 10.511719 16.5625 10.730469 C 16.503906 10.53125 16.476562 10.320312 16.480469 10.105469 Z M 16.480469 10.105469 "></path><use xlink:href="#surface8" mask="url(#mask1)"></use><use xlink:href="#surface11" mask="url(#mask2)"></use><path style="stroke: none; fill-rule: evenodd; fill: rgb(171, 171, 171); fill-opacity: 1;" d="M 13.0625 11.394531 C 13.066406 11.613281 13.035156 11.820312 12.980469 12.019531 C 12.976562 11.804688 13.003906 11.59375 13.0625 11.394531 Z M 13.0625 11.394531 "></path><path style="stroke: none; fill-rule: evenodd; fill: rgb(70, 68, 69); fill-opacity: 1;" d="M 10.480469 12.394531 C 10.539062 12.578125 10.566406 12.773438 10.5625 12.980469 C 10.5 12.796875 10.472656 12.601562 10.480469 12.394531 Z M 10.480469 12.394531 "></path><path style="stroke: none; fill-rule: evenodd; fill: rgb(159, 139, 77); fill-opacity: 1;" d="M 3.8125 13.5625 C 3.882812 13.65625 3.910156 13.769531 3.894531 13.894531 C 3.84375 13.796875 3.816406 13.683594 3.8125 13.5625 Z M 3.8125 13.5625 "></path><path style="stroke: none; fill-rule: evenodd; fill: rgb(71, 69, 70); fill-opacity: 1;" d="M 2.9375 13.6875 C 2.964844 13.792969 3.007812 13.898438 3.0625 14 C 3.03125 14.074219 3.019531 14.148438 3.019531 14.230469 C 2.960938 14.058594 2.933594 13.878906 2.9375 13.6875 Z M 2.9375 13.6875 "></path><use xlink:href="#surface14" mask="url(#mask3)"></use><path style="stroke: none; fill-rule: evenodd; fill: rgb(177, 175, 176); fill-opacity: 1;" d="M 9.605469 15.980469 C 9.605469 16.132812 9.605469 16.285156 9.605469 16.4375 C 9.054688 16.453125 8.511719 16.4375 7.980469 16.394531 C 8.507812 16.394531 9.035156 16.394531 9.5625 16.394531 C 9.550781 16.25 9.5625 16.109375 9.605469 15.980469 Z M 9.605469 15.980469 "></path><path style="stroke: none; fill-rule: evenodd; fill: rgb(176, 175, 176); fill-opacity: 1;" d="M 15.3125 15.980469 C 15.351562 16.109375 15.367188 16.25 15.355469 16.394531 C 15.882812 16.394531 16.410156 16.394531 16.9375 16.394531 C 16.402344 16.4375 15.863281 16.453125 15.3125 16.4375 C 15.3125 16.285156 15.3125 16.132812 15.3125 15.980469 Z M 15.3125 15.980469 "></path><path style="stroke: none; fill-rule: evenodd; fill: rgb(184, 168, 94); fill-opacity: 1;" d="M 9.980469 19.144531 C 10.285156 19.117188 10.371094 19.230469 10.230469 19.480469 C 10.230469 19.394531 10.230469 19.3125 10.230469 19.230469 C 10.121094 19.25 10.039062 19.222656 9.980469 19.144531 Z M 9.980469 19.144531 "></path><path style="stroke: none; fill-rule: evenodd; fill: rgb(52, 51, 52); fill-opacity: 1;" d="M 17.3125 20.730469 C 17.089844 20.910156 16.839844 21.050781 16.5625 21.144531 C 16.609375 21.109375 16.609375 21.074219 16.5625 21.042969 C 16.675781 21 16.769531 20.9375 16.855469 20.855469 C 16.972656 20.894531 17.070312 20.859375 17.144531 20.75 C 17.132812 20.734375 17.117188 20.722656 17.105469 20.707031 C 17.183594 20.675781 17.253906 20.683594 17.3125 20.730469 Z M 17.3125 20.730469 "></path><path style="stroke: none; fill-rule: evenodd; fill: rgb(51, 51, 51); fill-opacity: 1;" d="M 15.6875 21.394531 C 15.742188 21.410156 15.796875 21.421875 15.855469 21.4375 C 15.566406 21.582031 15.261719 21.679688 14.9375 21.730469 C 14.941406 21.625 14.984375 21.597656 15.0625 21.644531 C 15.199219 21.625 15.316406 21.570312 15.417969 21.480469 C 15.535156 21.546875 15.625 21.519531 15.6875 21.394531 Z M 15.6875 21.394531 "></path></g></svg>