<svg xmlns="http://www.w3.org/2000/svg" xmlns:xlink="http://www.w3.org/1999/xlink" width="25px" height="25px" viewBox="0 0 25 25" version="1.1"><defs><filter id="alpha" filterUnits="objectBoundingBox" x="0%" y="0%" width="100%" height="100%"><feColorMatrix type="matrix" in="SourceGraphic" values="0 0 0 0 1 0 0 0 0 1 0 0 0 0 1 0 0 0 1 0"></feColorMatrix></filter><mask id="mask0"><g filter="url(#alpha)"><rect x="0" y="0" width="25" height="25" style="fill: rgb(0, 0, 0); fill-opacity: 0.996078; stroke: none;"></rect></g></mask><clipPath id="clip1"><rect x="0" y="0" width="25" height="25"></rect></clipPath><g id="surface5" clip-path="url(#clip1)"><path style="stroke: none; fill-rule: evenodd; fill: rgb(100, 99, 100); fill-opacity: 1;" d="M 12.980469 2.855469 C 14.054688 2.867188 15.082031 3.089844 16.0625 3.519531 C 16.058594 3.542969 16.046875 3.558594 16.019531 3.5625 C 15.035156 3.183594 14.019531 2.945312 12.980469 2.855469 Z M 12.980469 2.855469 "></path></g><mask id="mask1"><g filter="url(#alpha)"><rect x="0" y="0" width="25" height="25" style="fill: rgb(0, 0, 0); fill-opacity: 0.87451; stroke: none;"></rect></g></mask><clipPath id="clip2"><rect x="0" y="0" width="25" height="25"></rect></clipPath><g id="surface8" clip-path="url(#clip2)"><path style="stroke: none; fill-rule: evenodd; fill: rgb(100, 99, 99); fill-opacity: 1;" d="M 10.480469 3.019531 C 10.472656 3.046875 10.460938 3.066406 10.4375 3.082031 C 9.910156 3.199219 9.394531 3.359375 8.894531 3.5625 C 8.871094 3.558594 8.855469 3.542969 8.855469 3.519531 C 9.367188 3.273438 9.90625 3.105469 10.480469 3.019531 Z M 10.480469 3.019531 "></path></g><mask id="mask2"><g filter="url(#alpha)"><rect x="0" y="0" width="25" height="25" style="fill: rgb(0, 0, 0); fill-opacity: 0.901961; stroke: none;"></rect></g></mask><clipPath id="clip3"><rect x="0" y="0" width="25" height="25"></rect></clipPath><g id="surface11" clip-path="url(#clip3)"><path style="stroke: none; fill-rule: evenodd; fill: rgb(124, 123, 123); fill-opacity: 1;" d="M 16.105469 3.519531 C 16.183594 3.550781 16.25 3.59375 16.3125 3.644531 C 16.207031 3.65625 16.136719 3.613281 16.105469 3.519531 Z M 16.105469 3.519531 "></path></g><mask id="mask3"><g filter="url(#alpha)"><rect x="0" y="0" width="25" height="25" style="fill: rgb(0, 0, 0); fill-opacity: 0.972549; stroke: none;"></rect></g></mask><clipPath id="clip4"><rect x="0" y="0" width="25" height="25"></rect></clipPath><g id="surface14" clip-path="url(#clip4)"><path style="stroke: none; fill-rule: evenodd; fill: rgb(102, 101, 101); fill-opacity: 1;" d="M 8.8125 3.519531 C 8.773438 3.605469 8.703125 3.660156 8.605469 3.6875 C 8.578125 3.683594 8.566406 3.667969 8.5625 3.644531 C 8.636719 3.589844 8.71875 3.546875 8.8125 3.519531 Z M 8.8125 3.519531 "></path></g><mask id="mask4"><g filter="url(#alpha)"><rect x="0" y="0" width="25" height="25" style="fill: rgb(0, 0, 0); fill-opacity: 0.180392; stroke: none;"></rect></g></mask><clipPath id="clip5"><rect x="0" y="0" width="25" height="25"></rect></clipPath><g id="surface17" clip-path="url(#clip5)"><path style="stroke: none; fill-rule: evenodd; fill: rgb(113, 112, 112); fill-opacity: 1;" d="M 16.3125 3.644531 C 16.613281 3.742188 16.890625 3.878906 17.144531 4.0625 C 16.855469 3.945312 16.578125 3.804688 16.3125 3.644531 Z M 16.3125 3.644531 "></path></g><mask id="mask5"><g filter="url(#alpha)"><rect x="0" y="0" width="25" height="25" style="fill: rgb(0, 0, 0); fill-opacity: 0.0823529; stroke: none;"></rect></g></mask><clipPath id="clip6"><rect x="0" y="0" width="25" height="25"></rect></clipPath><g id="surface20" clip-path="url(#clip6)"><path style="stroke: none; fill-rule: evenodd; fill: rgb(110, 108, 109); fill-opacity: 1;" d="M 17.144531 4.0625 C 17.3125 4.105469 17.453125 4.1875 17.5625 4.3125 C 17.410156 4.25 17.269531 4.167969 17.144531 4.0625 Z M 17.144531 4.0625 "></path></g><mask id="mask6"><g filter="url(#alpha)"><rect x="0" y="0" width="25" height="25" style="fill: rgb(0, 0, 0); fill-opacity: 0.886275; stroke: none;"></rect></g></mask><clipPath id="clip7"><rect x="0" y="0" width="25" height="25"></rect></clipPath><g id="surface23" clip-path="url(#clip7)"><path style="stroke: none; fill-rule: evenodd; fill: rgb(104, 102, 103); fill-opacity: 1;" d="M 8.519531 3.644531 C 8.527344 3.683594 8.511719 3.710938 8.480469 3.730469 C 7.550781 4.171875 6.703125 4.726562 5.9375 5.394531 C 5.9375 5.382812 5.9375 5.367188 5.9375 5.355469 C 6.699219 4.640625 7.558594 4.070312 8.519531 3.644531 Z M 8.519531 3.644531 "></path></g><mask id="mask7"><g filter="url(#alpha)"><rect x="0" y="0" width="25" height="25" style="fill: rgb(0, 0, 0); fill-opacity: 0.0470588; stroke: none;"></rect></g></mask><clipPath id="clip8"><rect x="0" y="0" width="25" height="25"></rect></clipPath><g id="surface26" clip-path="url(#clip8)"><path style="stroke: none; fill-rule: evenodd; fill: rgb(119, 117, 118); fill-opacity: 1;" d="M 17.8125 4.480469 C 17.875 4.476562 17.917969 4.503906 17.9375 4.5625 C 17.875 4.566406 17.832031 4.539062 17.8125 4.480469 Z M 17.8125 4.480469 "></path></g><mask id="mask8"><g filter="url(#alpha)"><rect x="0" y="0" width="25" height="25" style="fill: rgb(0, 0, 0); fill-opacity: 0.0823529; stroke: none;"></rect></g></mask><clipPath id="clip9"><rect x="0" y="0" width="25" height="25"></rect></clipPath><g id="surface29" clip-path="url(#clip9)"><path style="stroke: none; fill-rule: evenodd; fill: rgb(114, 114, 114); fill-opacity: 1;" d="M 17.9375 4.5625 C 18 4.558594 18.042969 4.585938 18.0625 4.644531 C 18 4.648438 17.957031 4.621094 17.9375 4.5625 Z M 17.9375 4.5625 "></path></g><mask id="mask9"><g filter="url(#alpha)"><rect x="0" y="0" width="25" height="25" style="fill: rgb(0, 0, 0); fill-opacity: 0.47451; stroke: none;"></rect></g></mask><clipPath id="clip10"><rect x="0" y="0" width="25" height="25"></rect></clipPath><g id="surface32" clip-path="url(#clip10)"><path style="stroke: none; fill-rule: evenodd; fill: rgb(112, 112, 112); fill-opacity: 1;" d="M 18.0625 4.644531 C 18.140625 4.65625 18.199219 4.699219 18.230469 4.769531 C 18.148438 4.761719 18.09375 4.71875 18.0625 4.644531 Z M 18.0625 4.644531 "></path></g><mask id="mask10"><g filter="url(#alpha)"><rect x="0" y="0" width="25" height="25" style="fill: rgb(0, 0, 0); fill-opacity: 0.521569; stroke: none;"></rect></g></mask><clipPath id="clip11"><rect x="0" y="0" width="25" height="25"></rect></clipPath><g id="surface35" clip-path="url(#clip11)"><path style="stroke: none; fill-rule: evenodd; fill: rgb(106, 104, 105); fill-opacity: 1;" d="M 18.4375 4.9375 C 18.53125 4.960938 18.601562 5.015625 18.644531 5.105469 C 18.550781 5.078125 18.484375 5.023438 18.4375 4.9375 Z M 18.4375 4.9375 "></path></g><mask id="mask11"><g filter="url(#alpha)"><rect x="0" y="0" width="25" height="25" style="fill: rgb(0, 0, 0); fill-opacity: 0.0588235; stroke: none;"></rect></g></mask><clipPath id="clip12"><rect x="0" y="0" width="25" height="25"></rect></clipPath><g id="surface38" clip-path="url(#clip12)"><path style="stroke: none; fill-rule: evenodd; fill: rgb(105, 104, 104); fill-opacity: 1;" d="M 18.730469 5.1875 C 18.835938 5.226562 18.921875 5.296875 18.980469 5.394531 C 18.871094 5.359375 18.789062 5.289062 18.730469 5.1875 Z M 18.730469 5.1875 "></path></g><mask id="mask12"><g filter="url(#alpha)"><rect x="0" y="0" width="25" height="25" style="fill: rgb(0, 0, 0); fill-opacity: 0.956863; stroke: none;"></rect></g></mask><clipPath id="clip13"><rect x="0" y="0" width="25" height="25"></rect></clipPath><g id="surface41" clip-path="url(#clip13)"><path style="stroke: none; fill-rule: evenodd; fill: rgb(101, 99, 100); fill-opacity: 1;" d="M 20.3125 6.9375 C 20.371094 6.957031 20.398438 7 20.394531 7.0625 C 20.335938 7.042969 20.308594 7 20.3125 6.9375 Z M 20.3125 6.9375 "></path></g><mask id="mask13"><g filter="url(#alpha)"><rect x="0" y="0" width="25" height="25" style="fill: rgb(0, 0, 0); fill-opacity: 0.917647; stroke: none;"></rect></g></mask><clipPath id="clip14"><rect x="0" y="0" width="25" height="25"></rect></clipPath><g id="surface44" clip-path="url(#clip14)"><path style="stroke: none; fill-rule: evenodd; fill: rgb(115, 112, 114); fill-opacity: 1;" d="M 20.5625 7.3125 C 20.621094 7.332031 20.648438 7.375 20.644531 7.4375 C 20.585938 7.417969 20.558594 7.375 20.5625 7.3125 Z M 20.5625 7.3125 "></path></g><mask id="mask14"><g filter="url(#alpha)"><rect x="0" y="0" width="25" height="25" style="fill: rgb(0, 0, 0); fill-opacity: 0.905882; stroke: none;"></rect></g></mask><clipPath id="clip15"><rect x="0" y="0" width="25" height="25"></rect></clipPath><g id="surface47" clip-path="url(#clip15)"><path style="stroke: none; fill-rule: evenodd; fill: rgb(109, 109, 109); fill-opacity: 1;" d="M 20.6875 7.519531 C 20.746094 7.539062 20.773438 7.582031 20.769531 7.644531 C 20.710938 7.625 20.683594 7.585938 20.6875 7.519531 Z M 20.6875 7.519531 "></path></g><mask id="mask15"><g filter="url(#alpha)"><rect x="0" y="0" width="25" height="25" style="fill: rgb(0, 0, 0); fill-opacity: 0.145098; stroke: none;"></rect></g></mask><clipPath id="clip16"><rect x="0" y="0" width="25" height="25"></rect></clipPath><g id="surface50" clip-path="url(#clip16)"><path style="stroke: none; fill-rule: evenodd; fill: rgb(126, 125, 126); fill-opacity: 1;" d="M 5.9375 5.355469 C 5.9375 5.367188 5.9375 5.382812 5.9375 5.394531 C 4.578125 6.714844 3.632812 8.285156 3.105469 10.105469 C 3.578125 8.234375 4.523438 6.652344 5.9375 5.355469 Z M 5.9375 5.355469 "></path></g><mask id="mask16"><g filter="url(#alpha)"><rect x="0" y="0" width="25" height="25" style="fill: rgb(0, 0, 0); fill-opacity: 0.984314; stroke: none;"></rect></g></mask><clipPath id="clip17"><rect x="0" y="0" width="25" height="25"></rect></clipPath><g id="surface53" clip-path="url(#clip17)"><path style="stroke: none; fill-rule: evenodd; fill: rgb(110, 109, 109); fill-opacity: 1;" d="M 3.0625 10.144531 C 3.105469 10.144531 3.132812 10.164062 3.144531 10.207031 C 3.0625 10.515625 3 10.828125 2.957031 11.144531 C 2.941406 11.167969 2.921875 11.183594 2.894531 11.1875 C 2.9375 10.835938 2.992188 10.492188 3.0625 10.144531 Z M 3.0625 10.144531 "></path></g><mask id="mask17"><g filter="url(#alpha)"><rect x="0" y="0" width="25" height="25" style="fill: rgb(0, 0, 0); fill-opacity: 0.027451; stroke: none;"></rect></g></mask><clipPath id="clip18"><rect x="0" y="0" width="25" height="25"></rect></clipPath><g id="surface56" clip-path="url(#clip18)"><path style="stroke: none; fill-rule: evenodd; fill: rgb(144, 144, 144); fill-opacity: 1;" d="M 2.894531 11.230469 C 2.933594 11.273438 2.949219 11.328125 2.9375 11.394531 C 2.910156 11.410156 2.882812 11.421875 2.855469 11.4375 C 2.847656 11.363281 2.863281 11.292969 2.894531 11.230469 Z M 2.894531 11.230469 "></path></g><mask id="mask18"><g filter="url(#alpha)"><rect x="0" y="0" width="25" height="25" style="fill: rgb(0, 0, 0); fill-opacity: 0.972549; stroke: none;"></rect></g></mask><clipPath id="clip19"><rect x="0" y="0" width="25" height="25"></rect></clipPath><g id="surface59" clip-path="url(#clip19)"><path style="stroke: none; fill-rule: evenodd; fill: rgb(93, 93, 93); fill-opacity: 1;" d="M 2.9375 11.394531 C 2.929688 11.597656 2.902344 11.792969 2.855469 11.980469 C 2.855469 11.796875 2.855469 11.617188 2.855469 11.4375 C 2.882812 11.421875 2.910156 11.410156 2.9375 11.394531 Z M 2.9375 11.394531 "></path></g><mask id="mask19"><g filter="url(#alpha)"><rect x="0" y="0" width="25" height="25" style="fill: rgb(0, 0, 0); fill-opacity: 0.941176; stroke: none;"></rect></g></mask><clipPath id="clip20"><rect x="0" y="0" width="25" height="25"></rect></clipPath><g id="surface62" clip-path="url(#clip20)"><path style="stroke: none; fill-rule: evenodd; fill: rgb(110, 110, 110); fill-opacity: 1;" d="M 2.855469 12.980469 C 2.925781 13.214844 2.941406 13.449219 2.894531 13.6875 C 2.859375 13.453125 2.84375 13.21875 2.855469 12.980469 Z M 2.855469 12.980469 "></path></g><mask id="mask20"><g filter="url(#alpha)"><rect x="0" y="0" width="25" height="25" style="fill: rgb(0, 0, 0); fill-opacity: 0.00784314; stroke: none;"></rect></g></mask><clipPath id="clip21"><rect x="0" y="0" width="25" height="25"></rect></clipPath><g id="surface65" clip-path="url(#clip21)"><path style="stroke: none; fill-rule: evenodd; fill: rgb(137, 136, 136); fill-opacity: 1;" d="M 22.0625 13.4375 C 22.066406 13.523438 22.039062 13.59375 21.980469 13.644531 C 21.964844 13.554688 21.992188 13.484375 22.0625 13.4375 Z M 22.0625 13.4375 "></path></g><mask id="mask21"><g filter="url(#alpha)"><rect x="0" y="0" width="25" height="25" style="fill: rgb(0, 0, 0); fill-opacity: 0.0235294; stroke: none;"></rect></g></mask><clipPath id="clip22"><rect x="0" y="0" width="25" height="25"></rect></clipPath><g id="surface68" clip-path="url(#clip22)"><path style="stroke: none; fill-rule: evenodd; fill: rgb(132, 131, 131); fill-opacity: 1;" d="M 2.894531 13.730469 C 2.957031 13.753906 2.984375 13.804688 2.980469 13.875 C 2.976562 13.917969 2.964844 13.953125 2.9375 13.980469 C 2.910156 13.898438 2.898438 13.816406 2.894531 13.730469 Z M 2.894531 13.730469 "></path></g><mask id="mask22"><g filter="url(#alpha)"><rect x="0" y="0" width="25" height="25" style="fill: rgb(0, 0, 0); fill-opacity: 0.419608; stroke: none;"></rect></g></mask><clipPath id="clip23"><rect x="0" y="0" width="25" height="25"></rect></clipPath><g id="surface71" clip-path="url(#clip23)"><path style="stroke: none; fill-rule: evenodd; fill: rgb(130, 128, 129); fill-opacity: 1;" d="M 2.9375 14.019531 C 2.964844 14.027344 2.984375 14.039062 3 14.0625 C 3.144531 14.835938 3.359375 15.585938 3.644531 16.3125 C 3.285156 15.589844 3.050781 14.828125 2.9375 14.019531 Z M 2.9375 14.019531 "></path></g><mask id="mask23"><g filter="url(#alpha)"><rect x="0" y="0" width="25" height="25" style="fill: rgb(0, 0, 0); fill-opacity: 0.756863; stroke: none;"></rect></g></mask><clipPath id="clip24"><rect x="0" y="0" width="25" height="25"></rect></clipPath><g id="surface74" clip-path="url(#clip24)"><path style="stroke: none; fill-rule: evenodd; fill: rgb(137, 136, 136); fill-opacity: 1;" d="M 3.6875 16.394531 C 3.894531 16.785156 4.105469 17.171875 4.3125 17.5625 C 4.039062 17.210938 3.832031 16.824219 3.6875 16.394531 Z M 3.6875 16.394531 "></path></g><mask id="mask24"><g filter="url(#alpha)"><rect x="0" y="0" width="25" height="25" style="fill: rgb(0, 0, 0); fill-opacity: 0.407843; stroke: none;"></rect></g></mask><clipPath id="clip25"><rect x="0" y="0" width="25" height="25"></rect></clipPath><g id="surface77" clip-path="url(#clip25)"><path style="stroke: none; fill-rule: evenodd; fill: rgb(125, 123, 124); fill-opacity: 1;" d="M 4.3125 17.5625 C 4.371094 17.582031 4.398438 17.625 4.394531 17.6875 C 4.335938 17.667969 4.308594 17.625 4.3125 17.5625 Z M 4.3125 17.5625 "></path></g><mask id="mask25"><g filter="url(#alpha)"><rect x="0" y="0" width="25" height="25" style="fill: rgb(0, 0, 0); fill-opacity: 0.0901961; stroke: none;"></rect></g></mask><clipPath id="clip26"><rect x="0" y="0" width="25" height="25"></rect></clipPath><g id="surface80" clip-path="url(#clip26)"><path style="stroke: none; fill-rule: evenodd; fill: rgb(119, 119, 119); fill-opacity: 1;" d="M 4.8125 18.269531 C 4.871094 18.289062 4.898438 18.332031 4.894531 18.394531 C 4.835938 18.375 4.808594 18.335938 4.8125 18.269531 Z M 4.8125 18.269531 "></path></g><mask id="mask26"><g filter="url(#alpha)"><rect x="0" y="0" width="25" height="25" style="fill: rgb(0, 0, 0); fill-opacity: 0.0705882; stroke: none;"></rect></g></mask><clipPath id="clip27"><rect x="0" y="0" width="25" height="25"></rect></clipPath><g id="surface83" clip-path="url(#clip27)"><path style="stroke: none; fill-rule: evenodd; fill: rgb(117, 116, 117); fill-opacity: 1;" d="M 4.9375 18.4375 C 5.023438 18.484375 5.078125 18.550781 5.105469 18.644531 C 5.015625 18.601562 4.960938 18.53125 4.9375 18.4375 Z M 4.9375 18.4375 "></path></g><mask id="mask27"><g filter="url(#alpha)"><rect x="0" y="0" width="25" height="25" style="fill: rgb(0, 0, 0); fill-opacity: 0.0588235; stroke: none;"></rect></g></mask><clipPath id="clip28"><rect x="0" y="0" width="25" height="25"></rect></clipPath><g id="surface86" clip-path="url(#clip28)"><path style="stroke: none; fill-rule: evenodd; fill: rgb(112, 110, 111); fill-opacity: 1;" d="M 5.1875 18.730469 C 5.273438 18.773438 5.328125 18.84375 5.355469 18.9375 C 5.265625 18.890625 5.210938 18.824219 5.1875 18.730469 Z M 5.1875 18.730469 "></path></g><mask id="mask28"><g filter="url(#alpha)"><rect x="0" y="0" width="25" height="25" style="fill: rgb(0, 0, 0); fill-opacity: 0.952941; stroke: none;"></rect></g></mask><clipPath id="clip29"><rect x="0" y="0" width="25" height="25"></rect></clipPath><g id="surface89" clip-path="url(#clip29)"><path style="stroke: none; fill-rule: evenodd; fill: rgb(100, 100, 100); fill-opacity: 1;" d="M 6.9375 20.3125 C 7 20.308594 7.042969 20.335938 7.0625 20.394531 C 7 20.398438 6.957031 20.371094 6.9375 20.3125 Z M 6.9375 20.3125 "></path></g><mask id="mask29"><g filter="url(#alpha)"><rect x="0" y="0" width="25" height="25" style="fill: rgb(0, 0, 0); fill-opacity: 0.909804; stroke: none;"></rect></g></mask><clipPath id="clip30"><rect x="0" y="0" width="25" height="25"></rect></clipPath><g id="surface92" clip-path="url(#clip30)"><path style="stroke: none; fill-rule: evenodd; fill: rgb(118, 116, 117); fill-opacity: 1;" d="M 7.3125 20.5625 C 7.375 20.558594 7.417969 20.585938 7.4375 20.644531 C 7.375 20.648438 7.332031 20.621094 7.3125 20.5625 Z M 7.3125 20.5625 "></path></g><mask id="mask30"><g filter="url(#alpha)"><rect x="0" y="0" width="25" height="25" style="fill: rgb(0, 0, 0); fill-opacity: 0.47451; stroke: none;"></rect></g></mask><clipPath id="clip31"><rect x="0" y="0" width="25" height="25"></rect></clipPath><g id="surface95" clip-path="url(#clip31)"><path style="stroke: none; fill-rule: evenodd; fill: rgb(116, 114, 115); fill-opacity: 1;" d="M 16.355469 21.230469 C 16.3125 21.277344 16.257812 21.304688 16.1875 21.3125 C 16.21875 21.246094 16.277344 21.21875 16.355469 21.230469 Z M 16.355469 21.230469 "></path></g><mask id="mask31"><g filter="url(#alpha)"><rect x="0" y="0" width="25" height="25" style="fill: rgb(0, 0, 0); fill-opacity: 0.992157; stroke: none;"></rect></g></mask><clipPath id="clip32"><rect x="0" y="0" width="25" height="25"></rect></clipPath><g id="surface98" clip-path="url(#clip32)"><path style="stroke: none; fill-rule: evenodd; fill: rgb(73, 71, 72); fill-opacity: 1;" d="M 9.8125 21.6875 C 10.050781 21.699219 10.273438 21.753906 10.480469 21.855469 C 10.242188 21.835938 10.019531 21.78125 9.8125 21.6875 Z M 9.8125 21.6875 "></path></g><mask id="mask32"><g filter="url(#alpha)"><rect x="0" y="0" width="25" height="25" style="fill: rgb(0, 0, 0); fill-opacity: 0.0313725; stroke: none;"></rect></g></mask><clipPath id="clip33"><rect x="0" y="0" width="25" height="25"></rect></clipPath><g id="surface101" clip-path="url(#clip33)"><path style="stroke: none; fill-rule: evenodd; fill: rgb(86, 85, 85); fill-opacity: 1;" d="M 11.230469 21.980469 C 11.488281 21.972656 11.738281 22.003906 11.980469 22.0625 C 11.769531 22.070312 11.5625 22.0625 11.355469 22.042969 C 11.300781 22.03125 11.261719 22.011719 11.230469 21.980469 Z M 11.230469 21.980469 "></path></g><mask id="mask33"><g filter="url(#alpha)"><rect x="0" y="0" width="25" height="25" style="fill: rgb(0, 0, 0); fill-opacity: 0.027451; stroke: none;"></rect></g></mask><clipPath id="clip34"><rect x="0" y="0" width="25" height="25"></rect></clipPath><g id="surface104" clip-path="url(#clip34)"><path style="stroke: none; fill-rule: evenodd; fill: rgb(106, 105, 105); fill-opacity: 1;" d="M 13.644531 21.980469 C 13.613281 22.011719 13.574219 22.03125 13.519531 22.042969 C 13.339844 22.0625 13.160156 22.070312 12.980469 22.0625 C 13.191406 22.007812 13.414062 21.980469 13.644531 21.980469 Z M 13.644531 21.980469 "></path></g></defs><g id="surface1"><use xlink:href="#surface5" mask="url(#mask0)"></use><path style="stroke: none; fill-rule: evenodd; fill: rgb(88, 87, 87); fill-opacity: 1;" d="M 11.980469 2.855469 C 11.523438 2.914062 11.066406 2.984375 10.605469 3.0625 C 10.554688 3.050781 10.527344 3.023438 10.519531 2.980469 C 11.003906 2.886719 11.488281 2.84375 11.980469 2.855469 Z M 11.980469 2.855469 "></path><use xlink:href="#surface8" mask="url(#mask1)"></use><path style="stroke: none; fill-rule: evenodd; fill: rgb(15, 13, 14); fill-opacity: 1;" d="M 11.980469 2.855469 C 12.3125 2.855469 12.644531 2.855469 12.980469 2.855469 C 14.019531 2.945312 15.035156 3.183594 16.019531 3.5625 C 16.046875 3.558594 16.058594 3.542969 16.0625 3.519531 C 16.078125 3.519531 16.089844 3.519531 16.105469 3.519531 C 16.136719 3.613281 16.207031 3.65625 16.3125 3.644531 C 16.578125 3.804688 16.855469 3.945312 17.144531 4.0625 C 17.269531 4.167969 17.410156 4.25 17.5625 4.3125 C 17.660156 4.347656 17.742188 4.402344 17.8125 4.480469 C 17.832031 4.539062 17.875 4.566406 17.9375 4.5625 C 17.957031 4.621094 18 4.648438 18.0625 4.644531 C 18.09375 4.71875 18.148438 4.761719 18.230469 4.769531 C 18.324219 4.796875 18.390625 4.851562 18.4375 4.9375 C 18.484375 5.023438 18.550781 5.078125 18.644531 5.105469 C 18.6875 5.117188 18.714844 5.144531 18.730469 5.1875 C 18.789062 5.289062 18.871094 5.359375 18.980469 5.394531 C 19.078125 5.464844 19.160156 5.546875 19.230469 5.644531 C 19.28125 5.753906 19.335938 5.867188 19.394531 5.980469 C 19.511719 6.003906 19.609375 6.058594 19.6875 6.144531 C 19.683594 6.296875 19.753906 6.378906 19.894531 6.394531 C 19.898438 6.539062 19.945312 6.664062 20.042969 6.769531 C 20.089844 6.722656 20.136719 6.722656 20.1875 6.769531 C 20.261719 6.800781 20.300781 6.859375 20.3125 6.9375 C 20.308594 7 20.335938 7.042969 20.394531 7.0625 C 20.472656 7.132812 20.527344 7.214844 20.5625 7.3125 C 20.558594 7.375 20.585938 7.417969 20.644531 7.4375 C 20.679688 7.453125 20.695312 7.480469 20.6875 7.519531 C 20.683594 7.585938 20.710938 7.625 20.769531 7.644531 C 20.769531 7.730469 20.796875 7.808594 20.855469 7.875 C 20.816406 7.949219 20.808594 8.027344 20.832031 8.105469 C 20.875 8.167969 20.910156 8.238281 20.9375 8.3125 C 20.960938 8.304688 20.984375 8.289062 21 8.269531 C 20.976562 8.351562 20.992188 8.433594 21.042969 8.519531 C 21.050781 8.472656 21.074219 8.433594 21.105469 8.394531 C 21.132812 8.464844 21.171875 8.523438 21.230469 8.5625 C 21.40625 8.90625 21.546875 9.265625 21.644531 9.644531 C 21.691406 9.933594 21.757812 10.210938 21.855469 10.480469 C 21.894531 10.550781 21.90625 10.636719 21.894531 10.730469 C 21.894531 10.949219 21.921875 11.164062 21.980469 11.375 C 21.988281 11.433594 22.015625 11.46875 22.0625 11.480469 C 22.0625 12.132812 22.0625 12.785156 22.0625 13.4375 C 21.992188 13.484375 21.964844 13.554688 21.980469 13.644531 C 21.980469 13.671875 21.980469 13.703125 21.980469 13.730469 C 21.945312 13.769531 21.902344 13.804688 21.855469 13.832031 C 21.90625 13.9375 21.90625 14.039062 21.855469 14.144531 C 21.804688 14.089844 21.761719 14.097656 21.730469 14.167969 C 21.769531 14.1875 21.808594 14.195312 21.855469 14.1875 C 21.855469 14.269531 21.855469 14.355469 21.855469 14.4375 C 21.855469 14.464844 21.855469 14.492188 21.855469 14.519531 C 21.800781 14.542969 21.765625 14.585938 21.75 14.644531 C 21.703125 14.796875 21.683594 14.949219 21.6875 15.105469 C 21.519531 15.785156 21.257812 16.425781 20.894531 17.019531 C 20.808594 17.058594 20.757812 17.125 20.75 17.230469 C 20.734375 17.214844 20.722656 17.203125 20.707031 17.1875 C 20.679688 17.253906 20.644531 17.316406 20.605469 17.375 C 20.617188 17.390625 20.632812 17.402344 20.644531 17.417969 C 20.605469 17.429688 20.5625 17.445312 20.519531 17.457031 C 20.558594 17.488281 20.566406 17.523438 20.542969 17.5625 C 20.484375 17.609375 20.421875 17.609375 20.355469 17.5625 C 20.421875 17.632812 20.449219 17.714844 20.4375 17.8125 C 20.074219 18.382812 19.644531 18.894531 19.144531 19.355469 C 19.039062 19.363281 18.945312 19.398438 18.855469 19.457031 C 18.894531 19.488281 18.902344 19.523438 18.875 19.5625 C 18.804688 19.5625 18.734375 19.5625 18.667969 19.5625 C 18.648438 19.621094 18.613281 19.671875 18.5625 19.707031 C 18.589844 19.722656 18.617188 19.734375 18.644531 19.75 C 18.578125 19.765625 18.507812 19.777344 18.4375 19.792969 C 18.472656 19.820312 18.503906 19.855469 18.519531 19.894531 C 18.34375 20.066406 18.148438 20.222656 17.9375 20.355469 C 17.796875 20.367188 17.664062 20.40625 17.542969 20.480469 C 17.476562 20.476562 17.414062 20.460938 17.355469 20.4375 C 17.339844 20.453125 17.328125 20.464844 17.3125 20.480469 C 17.347656 20.511719 17.390625 20.53125 17.4375 20.542969 C 17.3125 20.566406 17.269531 20.628906 17.3125 20.730469 C 17.023438 20.949219 16.707031 21.117188 16.355469 21.230469 C 16.277344 21.21875 16.21875 21.246094 16.1875 21.3125 C 16.089844 21.375 15.976562 21.417969 15.855469 21.4375 C 15.738281 21.378906 15.640625 21.40625 15.5625 21.519531 C 15.410156 21.453125 15.296875 21.492188 15.230469 21.644531 C 14.722656 21.835938 14.195312 21.945312 13.644531 21.980469 C 13.414062 21.980469 13.191406 22.007812 12.980469 22.0625 C 12.644531 22.0625 12.3125 22.0625 11.980469 22.0625 C 11.738281 22.003906 11.488281 21.972656 11.230469 21.980469 C 10.96875 21.972656 10.71875 21.929688 10.480469 21.855469 C 10.273438 21.753906 10.050781 21.699219 9.8125 21.6875 C 9.273438 21.550781 8.761719 21.355469 8.269531 21.105469 C 8.246094 21.050781 8.226562 20.996094 8.207031 20.9375 C 8.183594 20.960938 8.15625 20.972656 8.125 20.980469 C 8.113281 20.9375 8.078125 20.894531 8.019531 20.855469 C 7.890625 20.914062 7.851562 20.878906 7.894531 20.75 C 7.75 20.714844 7.597656 20.679688 7.4375 20.644531 C 7.417969 20.585938 7.375 20.558594 7.3125 20.5625 C 7.214844 20.527344 7.132812 20.472656 7.0625 20.394531 C 7.042969 20.335938 7 20.308594 6.9375 20.3125 C 6.347656 19.933594 5.820312 19.472656 5.355469 18.9375 C 5.328125 18.84375 5.273438 18.773438 5.1875 18.730469 C 5.144531 18.714844 5.117188 18.6875 5.105469 18.644531 C 5.078125 18.550781 5.023438 18.484375 4.9375 18.4375 C 4.910156 18.4375 4.894531 18.421875 4.894531 18.394531 C 4.898438 18.332031 4.871094 18.289062 4.8125 18.269531 C 4.820312 18.109375 4.738281 18 4.5625 17.9375 C 4.488281 17.867188 4.429688 17.785156 4.394531 17.6875 C 4.398438 17.625 4.371094 17.582031 4.3125 17.5625 C 4.105469 17.171875 3.894531 16.785156 3.6875 16.394531 C 3.652344 16.382812 3.640625 16.355469 3.644531 16.3125 C 3.359375 15.585938 3.144531 14.835938 3 14.0625 C 2.984375 14.039062 2.964844 14.027344 2.9375 14.019531 C 2.9375 14.007812 2.9375 13.992188 2.9375 13.980469 C 2.964844 13.953125 2.976562 13.917969 2.980469 13.875 C 2.984375 13.804688 2.957031 13.753906 2.894531 13.730469 C 2.894531 13.714844 2.894531 13.703125 2.894531 13.6875 C 2.941406 13.449219 2.925781 13.214844 2.855469 12.980469 C 2.855469 12.644531 2.855469 12.3125 2.855469 11.980469 C 2.902344 11.792969 2.929688 11.597656 2.9375 11.394531 C 2.949219 11.328125 2.933594 11.273438 2.894531 11.230469 C 2.894531 11.214844 2.894531 11.203125 2.894531 11.1875 C 2.921875 11.183594 2.941406 11.167969 2.957031 11.144531 C 3 10.828125 3.0625 10.515625 3.144531 10.207031 C 3.132812 10.164062 3.105469 10.144531 3.0625 10.144531 C 3.0625 10.117188 3.078125 10.105469 3.105469 10.105469 C 3.632812 8.285156 4.578125 6.714844 5.9375 5.394531 C 6.703125 4.726562 7.550781 4.171875 8.480469 3.730469 C 8.511719 3.710938 8.527344 3.683594 8.519531 3.644531 C 8.535156 3.644531 8.546875 3.644531 8.5625 3.644531 C 8.566406 3.667969 8.578125 3.683594 8.605469 3.6875 C 8.703125 3.660156 8.773438 3.605469 8.8125 3.519531 C 8.828125 3.519531 8.839844 3.519531 8.855469 3.519531 C 8.855469 3.542969 8.871094 3.558594 8.894531 3.5625 C 9.394531 3.359375 9.910156 3.199219 10.4375 3.082031 C 10.460938 3.066406 10.472656 3.046875 10.480469 3.019531 C 10.480469 2.992188 10.492188 2.980469 10.519531 2.980469 C 10.527344 3.023438 10.554688 3.050781 10.605469 3.0625 C 11.066406 2.984375 11.523438 2.914062 11.980469 2.855469 Z M 11.980469 2.855469 "></path><use xlink:href="#surface11" mask="url(#mask2)"></use><use xlink:href="#surface14" mask="url(#mask3)"></use><use xlink:href="#surface17" mask="url(#mask4)"></use><path style="stroke: none; fill-rule: evenodd; fill: rgb(252, 252, 252); fill-opacity: 1;" d="M 14.6875 20.269531 C 14.691406 20.160156 14.664062 20.0625 14.605469 19.980469 C 14.554688 19.761719 14.5 19.546875 14.4375 19.332031 C 16.15625 18.753906 17.507812 17.707031 18.5 16.1875 C 19.898438 13.722656 19.914062 11.25 18.542969 8.769531 C 17.578125 7.222656 16.226562 6.179688 14.480469 5.644531 C 14.550781 5.140625 14.675781 4.640625 14.855469 4.144531 C 16.972656 4.726562 18.632812 5.949219 19.832031 7.8125 C 21.199219 10.058594 21.519531 12.445312 20.792969 14.980469 C 19.804688 17.960938 17.8125 19.902344 14.8125 20.8125 C 14.808594 20.621094 14.765625 20.441406 14.6875 20.269531 Z M 14.6875 20.269531 "></path><path style="stroke: none; fill-rule: evenodd; fill: rgb(252, 252, 252); fill-opacity: 1;" d="M 9.644531 4.1875 C 9.714844 4.1875 9.785156 4.1875 9.855469 4.1875 C 9.988281 4.679688 10.140625 5.164062 10.3125 5.644531 C 7.597656 6.644531 5.96875 8.558594 5.417969 11.394531 C 5.109375 14.570312 6.296875 16.992188 8.980469 18.667969 C 9.410156 18.902344 9.855469 19.105469 10.3125 19.269531 C 10.144531 19.753906 9.992188 20.238281 9.855469 20.730469 C 7.554688 20.007812 5.839844 18.578125 4.707031 16.4375 C 3.550781 13.988281 3.46875 11.5 4.457031 8.980469 C 5.53125 6.664062 7.257812 5.066406 9.644531 4.1875 Z M 9.644531 4.1875 "></path><use xlink:href="#surface20" mask="url(#mask5)"></use><use xlink:href="#surface23" mask="url(#mask6)"></use><use xlink:href="#surface26" mask="url(#mask7)"></use><use xlink:href="#surface29" mask="url(#mask8)"></use><use xlink:href="#surface32" mask="url(#mask9)"></use><use xlink:href="#surface35" mask="url(#mask10)"></use><use xlink:href="#surface38" mask="url(#mask11)"></use><path style="stroke: none; fill-rule: evenodd; fill: rgb(54, 53, 54); fill-opacity: 1;" d="M 19.230469 5.644531 C 19.414062 5.789062 19.566406 5.953125 19.6875 6.144531 C 19.609375 6.058594 19.511719 6.003906 19.394531 5.980469 C 19.335938 5.867188 19.28125 5.753906 19.230469 5.644531 Z M 19.230469 5.644531 "></path><path style="stroke: none; fill-rule: evenodd; fill: rgb(45, 43, 44); fill-opacity: 1;" d="M 19.6875 6.144531 C 19.769531 6.207031 19.84375 6.277344 19.917969 6.355469 C 20.019531 6.488281 20.109375 6.628906 20.1875 6.769531 C 20.136719 6.722656 20.089844 6.722656 20.042969 6.769531 C 19.945312 6.664062 19.898438 6.539062 19.894531 6.394531 C 19.753906 6.378906 19.683594 6.296875 19.6875 6.144531 Z M 19.6875 6.144531 "></path><use xlink:href="#surface41" mask="url(#mask12)"></use><use xlink:href="#surface44" mask="url(#mask13)"></use><use xlink:href="#surface47" mask="url(#mask14)"></use><path style="stroke: none; fill-rule: evenodd; fill: rgb(39, 38, 38); fill-opacity: 1;" d="M 20.769531 7.644531 C 20.964844 7.925781 21.121094 8.230469 21.230469 8.5625 C 21.171875 8.523438 21.132812 8.464844 21.105469 8.394531 C 21.074219 8.433594 21.050781 8.472656 21.042969 8.519531 C 20.992188 8.433594 20.976562 8.351562 21 8.269531 C 20.984375 8.289062 20.960938 8.304688 20.9375 8.3125 C 20.910156 8.238281 20.875 8.167969 20.832031 8.105469 C 20.808594 8.027344 20.816406 7.949219 20.855469 7.875 C 20.796875 7.808594 20.769531 7.730469 20.769531 7.644531 Z M 20.769531 7.644531 "></path><use xlink:href="#surface50" mask="url(#mask15)"></use><path style="stroke: none; fill-rule: evenodd; fill: rgb(254, 254, 254); fill-opacity: 1;" d="M 10.5625 8.480469 C 10.5625 9.480469 10.5625 10.480469 10.5625 11.480469 C 11.828125 11.480469 13.089844 11.480469 14.355469 11.480469 C 14.355469 10.480469 14.355469 9.480469 14.355469 8.480469 C 15.046875 8.480469 15.742188 8.480469 16.4375 8.480469 C 16.4375 11.132812 16.4375 13.785156 16.4375 16.4375 C 15.742188 16.4375 15.046875 16.4375 14.355469 16.4375 C 14.355469 15.410156 14.355469 14.382812 14.355469 13.355469 C 13.089844 13.355469 11.828125 13.355469 10.5625 13.355469 C 10.5625 14.382812 10.5625 15.410156 10.5625 16.4375 C 9.867188 16.4375 9.171875 16.4375 8.480469 16.4375 C 8.480469 13.785156 8.480469 11.132812 8.480469 8.480469 C 9.171875 8.480469 9.867188 8.480469 10.5625 8.480469 Z M 10.5625 8.480469 "></path><path style="stroke: none; fill-rule: evenodd; fill: rgb(190, 188, 189); fill-opacity: 1;" d="M 10.5625 8.480469 C 9.867188 8.480469 9.171875 8.480469 8.480469 8.480469 C 8.480469 11.132812 8.480469 13.785156 8.480469 16.4375 C 9.171875 16.4375 9.867188 16.4375 10.5625 16.4375 C 9.863281 16.480469 9.152344 16.492188 8.4375 16.480469 C 8.4375 13.796875 8.4375 11.117188 8.4375 8.4375 C 9.152344 8.421875 9.863281 8.4375 10.5625 8.480469 Z M 10.5625 8.480469 "></path><path style="stroke: none; fill-rule: evenodd; fill: rgb(188, 188, 188); fill-opacity: 1;" d="M 14.355469 8.480469 C 15.054688 8.4375 15.761719 8.421875 16.480469 8.4375 C 16.480469 11.117188 16.480469 13.796875 16.480469 16.480469 C 15.761719 16.492188 15.054688 16.480469 14.355469 16.4375 C 15.046875 16.4375 15.742188 16.4375 16.4375 16.4375 C 16.4375 13.785156 16.4375 11.132812 16.4375 8.480469 C 15.742188 8.480469 15.046875 8.480469 14.355469 8.480469 Z M 14.355469 8.480469 "></path><path style="stroke: none; fill-rule: evenodd; fill: rgb(86, 85, 85); fill-opacity: 1;" d="M 21.644531 9.644531 C 21.753906 9.910156 21.824219 10.1875 21.855469 10.480469 C 21.757812 10.210938 21.691406 9.933594 21.644531 9.644531 Z M 21.644531 9.644531 "></path><use xlink:href="#surface53" mask="url(#mask16)"></use><path style="stroke: none; fill-rule: evenodd; fill: rgb(78, 76, 77); fill-opacity: 1;" d="M 21.894531 10.730469 C 21.953125 10.972656 22.011719 11.222656 22.0625 11.480469 C 22.015625 11.46875 21.988281 11.433594 21.980469 11.375 C 21.921875 11.164062 21.894531 10.949219 21.894531 10.730469 Z M 21.894531 10.730469 "></path><use xlink:href="#surface56" mask="url(#mask17)"></use><use xlink:href="#surface59" mask="url(#mask18)"></use><use xlink:href="#surface62" mask="url(#mask19)"></use><use xlink:href="#surface65" mask="url(#mask20)"></use><path style="stroke: none; fill-rule: evenodd; fill: rgb(56, 55, 56); fill-opacity: 1;" d="M 14.355469 16.4375 C 14.3125 15.429688 14.296875 14.417969 14.3125 13.394531 C 13.078125 13.394531 11.839844 13.394531 10.605469 13.394531 C 10.617188 14.417969 10.605469 15.429688 10.5625 16.4375 C 10.5625 15.410156 10.5625 14.382812 10.5625 13.355469 C 11.828125 13.355469 13.089844 13.355469 14.355469 13.355469 C 14.355469 14.382812 14.355469 15.410156 14.355469 16.4375 Z M 14.355469 16.4375 "></path><path style="stroke: none; fill-rule: evenodd; fill: rgb(64, 62, 63); fill-opacity: 1;" d="M 21.980469 13.730469 C 21.964844 13.976562 21.921875 14.210938 21.855469 14.4375 C 21.855469 14.355469 21.855469 14.269531 21.855469 14.1875 C 21.808594 14.195312 21.769531 14.1875 21.730469 14.167969 C 21.761719 14.097656 21.804688 14.089844 21.855469 14.144531 C 21.90625 14.039062 21.90625 13.9375 21.855469 13.832031 C 21.902344 13.804688 21.945312 13.769531 21.980469 13.730469 Z M 21.980469 13.730469 "></path><use xlink:href="#surface68" mask="url(#mask21)"></use><path style="stroke: none; fill-rule: evenodd; fill: rgb(58, 56, 57); fill-opacity: 1;" d="M 21.855469 14.519531 C 21.8125 14.722656 21.753906 14.917969 21.6875 15.105469 C 21.683594 14.949219 21.703125 14.796875 21.75 14.644531 C 21.765625 14.585938 21.800781 14.542969 21.855469 14.519531 Z M 21.855469 14.519531 "></path><use xlink:href="#surface71" mask="url(#mask22)"></use><use xlink:href="#surface74" mask="url(#mask23)"></use><path style="stroke: none; fill-rule: evenodd; fill: rgb(46, 45, 46); fill-opacity: 1;" d="M 20.894531 17.019531 C 20.773438 17.304688 20.621094 17.570312 20.4375 17.8125 C 20.449219 17.714844 20.421875 17.632812 20.355469 17.5625 C 20.421875 17.609375 20.484375 17.609375 20.542969 17.5625 C 20.566406 17.523438 20.558594 17.488281 20.519531 17.457031 C 20.5625 17.445312 20.605469 17.429688 20.644531 17.417969 C 20.632812 17.402344 20.617188 17.390625 20.605469 17.375 C 20.644531 17.316406 20.679688 17.253906 20.707031 17.1875 C 20.722656 17.203125 20.734375 17.214844 20.75 17.230469 C 20.757812 17.125 20.808594 17.058594 20.894531 17.019531 Z M 20.894531 17.019531 "></path><use xlink:href="#surface77" mask="url(#mask24)"></use><path style="stroke: none; fill-rule: evenodd; fill: rgb(70, 70, 70); fill-opacity: 1;" d="M 4.5625 17.9375 C 4.738281 18 4.820312 18.109375 4.8125 18.269531 C 4.710938 18.175781 4.625 18.0625 4.5625 17.9375 Z M 4.5625 17.9375 "></path><use xlink:href="#surface80" mask="url(#mask25)"></use><use xlink:href="#surface83" mask="url(#mask26)"></use><use xlink:href="#surface86" mask="url(#mask27)"></use><path style="stroke: none; fill-rule: evenodd; fill: rgb(44, 44, 44); fill-opacity: 1;" d="M 19.144531 19.355469 C 18.960938 19.5625 18.753906 19.746094 18.519531 19.894531 C 18.503906 19.855469 18.472656 19.820312 18.4375 19.792969 C 18.507812 19.777344 18.578125 19.765625 18.644531 19.75 C 18.617188 19.734375 18.589844 19.722656 18.5625 19.707031 C 18.613281 19.671875 18.648438 19.621094 18.667969 19.5625 C 18.734375 19.5625 18.804688 19.5625 18.875 19.5625 C 18.902344 19.523438 18.894531 19.488281 18.855469 19.457031 C 18.945312 19.398438 19.039062 19.363281 19.144531 19.355469 Z M 19.144531 19.355469 "></path><path style="stroke: none; fill-rule: evenodd; fill: rgb(79, 77, 78); fill-opacity: 1;" d="M 14.605469 19.980469 C 14.664062 20.0625 14.691406 20.160156 14.6875 20.269531 C 14.628906 20.1875 14.601562 20.089844 14.605469 19.980469 Z M 14.605469 19.980469 "></path><use xlink:href="#surface89" mask="url(#mask28)"></use><path style="stroke: none; fill-rule: evenodd; fill: rgb(42, 40, 41); fill-opacity: 1;" d="M 17.9375 20.355469 C 17.75 20.511719 17.542969 20.636719 17.3125 20.730469 C 17.269531 20.628906 17.3125 20.566406 17.4375 20.542969 C 17.390625 20.53125 17.347656 20.511719 17.3125 20.480469 C 17.328125 20.464844 17.339844 20.453125 17.355469 20.4375 C 17.414062 20.460938 17.476562 20.476562 17.542969 20.480469 C 17.664062 20.40625 17.796875 20.367188 17.9375 20.355469 Z M 17.9375 20.355469 "></path><use xlink:href="#surface92" mask="url(#mask29)"></use><path style="stroke: none; fill-rule: evenodd; fill: rgb(46, 46, 46); fill-opacity: 1;" d="M 7.4375 20.644531 C 7.597656 20.679688 7.75 20.714844 7.894531 20.75 C 7.851562 20.878906 7.890625 20.914062 8.019531 20.855469 C 8.078125 20.894531 8.113281 20.9375 8.125 20.980469 C 8.15625 20.972656 8.183594 20.960938 8.207031 20.9375 C 8.226562 20.996094 8.246094 21.050781 8.269531 21.105469 C 7.972656 20.984375 7.695312 20.832031 7.4375 20.644531 Z M 7.4375 20.644531 "></path><use xlink:href="#surface95" mask="url(#mask30)"></use><path style="stroke: none; fill-rule: evenodd; fill: rgb(53, 53, 53); fill-opacity: 1;" d="M 15.855469 21.4375 C 15.664062 21.546875 15.453125 21.617188 15.230469 21.644531 C 15.296875 21.492188 15.410156 21.453125 15.5625 21.519531 C 15.640625 21.40625 15.738281 21.378906 15.855469 21.4375 Z M 15.855469 21.4375 "></path><use xlink:href="#surface98" mask="url(#mask31)"></use><use xlink:href="#surface101" mask="url(#mask32)"></use><use xlink:href="#surface104" mask="url(#mask33)"></use></g></svg>