<svg xmlns="http://www.w3.org/2000/svg" xmlns:xlink="http://www.w3.org/1999/xlink" width="25px" height="25px" viewBox="0 0 25 25" version="1.1"><defs><filter id="alpha" filterUnits="objectBoundingBox" x="0%" y="0%" width="100%" height="100%"><feColorMatrix type="matrix" in="SourceGraphic" values="0 0 0 0 1 0 0 0 0 1 0 0 0 0 1 0 0 0 1 0"></feColorMatrix></filter><mask id="mask0"><g filter="url(#alpha)"><rect x="0" y="0" width="25" height="25" style="fill: rgb(0, 0, 0); fill-opacity: 0.988235; stroke: none;"></rect></g></mask><clipPath id="clip1"><rect x="0" y="0" width="25" height="25"></rect></clipPath><g id="surface5" clip-path="url(#clip1)"><path style="stroke: none; fill-rule: evenodd; fill: rgb(98, 97, 98); fill-opacity: 1;" d="M 12.980469 2.855469 C 14.054688 2.867188 15.082031 3.089844 16.0625 3.519531 C 16.058594 3.542969 16.046875 3.558594 16.019531 3.5625 C 15.035156 3.183594 14.019531 2.945312 12.980469 2.855469 Z M 12.980469 2.855469 "></path></g><mask id="mask1"><g filter="url(#alpha)"><rect x="0" y="0" width="25" height="25" style="fill: rgb(0, 0, 0); fill-opacity: 0.996078; stroke: none;"></rect></g></mask><clipPath id="clip2"><rect x="0" y="0" width="25" height="25"></rect></clipPath><g id="surface8" clip-path="url(#clip2)"><path style="stroke: none; fill-rule: evenodd; fill: rgb(77, 77, 77); fill-opacity: 1;" d="M 11.980469 2.855469 C 11.339844 2.921875 10.699219 3.035156 10.0625 3.1875 C 10.078125 3.160156 10.089844 3.132812 10.105469 3.105469 C 10.710938 2.929688 11.335938 2.84375 11.980469 2.855469 Z M 11.980469 2.855469 "></path></g><mask id="mask2"><g filter="url(#alpha)"><rect x="0" y="0" width="25" height="25" style="fill: rgb(0, 0, 0); fill-opacity: 0.317647; stroke: none;"></rect></g></mask><clipPath id="clip3"><rect x="0" y="0" width="25" height="25"></rect></clipPath><g id="surface11" clip-path="url(#clip3)"><path style="stroke: none; fill-rule: evenodd; fill: rgb(99, 98, 98); fill-opacity: 1;" d="M 10.105469 3.105469 C 10.089844 3.132812 10.078125 3.160156 10.0625 3.1875 C 9.664062 3.277344 9.273438 3.402344 8.894531 3.5625 C 8.871094 3.558594 8.855469 3.542969 8.855469 3.519531 C 9.246094 3.324219 9.664062 3.1875 10.105469 3.105469 Z M 10.105469 3.105469 "></path></g><mask id="mask3"><g filter="url(#alpha)"><rect x="0" y="0" width="25" height="25" style="fill: rgb(0, 0, 0); fill-opacity: 0.843137; stroke: none;"></rect></g></mask><clipPath id="clip4"><rect x="0" y="0" width="25" height="25"></rect></clipPath><g id="surface14" clip-path="url(#clip4)"><path style="stroke: none; fill-rule: evenodd; fill: rgb(125, 124, 124); fill-opacity: 1;" d="M 16.105469 3.519531 C 16.183594 3.550781 16.25 3.59375 16.3125 3.644531 C 16.207031 3.65625 16.136719 3.613281 16.105469 3.519531 Z M 16.105469 3.519531 "></path></g><mask id="mask4"><g filter="url(#alpha)"><rect x="0" y="0" width="25" height="25" style="fill: rgb(0, 0, 0); fill-opacity: 0.184314; stroke: none;"></rect></g></mask><clipPath id="clip5"><rect x="0" y="0" width="25" height="25"></rect></clipPath><g id="surface17" clip-path="url(#clip5)"><path style="stroke: none; fill-rule: evenodd; fill: rgb(96, 94, 94); fill-opacity: 1;" d="M 8.8125 3.519531 C 8.773438 3.605469 8.703125 3.660156 8.605469 3.6875 C 8.578125 3.683594 8.566406 3.667969 8.5625 3.644531 C 8.636719 3.589844 8.71875 3.546875 8.8125 3.519531 Z M 8.8125 3.519531 "></path></g><mask id="mask5"><g filter="url(#alpha)"><rect x="0" y="0" width="25" height="25" style="fill: rgb(0, 0, 0); fill-opacity: 0.180392; stroke: none;"></rect></g></mask><clipPath id="clip6"><rect x="0" y="0" width="25" height="25"></rect></clipPath><g id="surface20" clip-path="url(#clip6)"><path style="stroke: none; fill-rule: evenodd; fill: rgb(111, 110, 111); fill-opacity: 1;" d="M 16.3125 3.644531 C 16.613281 3.742188 16.890625 3.878906 17.144531 4.0625 C 16.855469 3.945312 16.578125 3.804688 16.3125 3.644531 Z M 16.3125 3.644531 "></path></g><mask id="mask6"><g filter="url(#alpha)"><rect x="0" y="0" width="25" height="25" style="fill: rgb(0, 0, 0); fill-opacity: 0.0823529; stroke: none;"></rect></g></mask><clipPath id="clip7"><rect x="0" y="0" width="25" height="25"></rect></clipPath><g id="surface23" clip-path="url(#clip7)"><path style="stroke: none; fill-rule: evenodd; fill: rgb(109, 108, 108); fill-opacity: 1;" d="M 17.144531 4.0625 C 17.3125 4.105469 17.453125 4.1875 17.5625 4.3125 C 17.410156 4.25 17.269531 4.167969 17.144531 4.0625 Z M 17.144531 4.0625 "></path></g><mask id="mask7"><g filter="url(#alpha)"><rect x="0" y="0" width="25" height="25" style="fill: rgb(0, 0, 0); fill-opacity: 0.988235; stroke: none;"></rect></g></mask><clipPath id="clip8"><rect x="0" y="0" width="25" height="25"></rect></clipPath><g id="surface26" clip-path="url(#clip8)"><path style="stroke: none; fill-rule: evenodd; fill: rgb(85, 83, 84); fill-opacity: 1;" d="M 17.5625 4.3125 C 17.660156 4.347656 17.742188 4.402344 17.8125 4.480469 C 17.738281 4.464844 17.667969 4.4375 17.605469 4.394531 C 17.511719 4.4375 17.5 4.40625 17.5625 4.3125 Z M 17.5625 4.3125 "></path></g><mask id="mask8"><g filter="url(#alpha)"><rect x="0" y="0" width="25" height="25" style="fill: rgb(0, 0, 0); fill-opacity: 0.0470588; stroke: none;"></rect></g></mask><clipPath id="clip9"><rect x="0" y="0" width="25" height="25"></rect></clipPath><g id="surface29" clip-path="url(#clip9)"><path style="stroke: none; fill-rule: evenodd; fill: rgb(117, 115, 116); fill-opacity: 1;" d="M 17.8125 4.480469 C 17.875 4.476562 17.917969 4.503906 17.9375 4.5625 C 17.875 4.566406 17.832031 4.539062 17.8125 4.480469 Z M 17.8125 4.480469 "></path></g><mask id="mask9"><g filter="url(#alpha)"><rect x="0" y="0" width="25" height="25" style="fill: rgb(0, 0, 0); fill-opacity: 0.0823529; stroke: none;"></rect></g></mask><clipPath id="clip10"><rect x="0" y="0" width="25" height="25"></rect></clipPath><g id="surface32" clip-path="url(#clip10)"><path style="stroke: none; fill-rule: evenodd; fill: rgb(114, 114, 114); fill-opacity: 1;" d="M 17.9375 4.5625 C 18 4.558594 18.042969 4.585938 18.0625 4.644531 C 18 4.648438 17.957031 4.621094 17.9375 4.5625 Z M 17.9375 4.5625 "></path></g><mask id="mask10"><g filter="url(#alpha)"><rect x="0" y="0" width="25" height="25" style="fill: rgb(0, 0, 0); fill-opacity: 0.447059; stroke: none;"></rect></g></mask><clipPath id="clip11"><rect x="0" y="0" width="25" height="25"></rect></clipPath><g id="surface35" clip-path="url(#clip11)"><path style="stroke: none; fill-rule: evenodd; fill: rgb(111, 111, 111); fill-opacity: 1;" d="M 18.0625 4.644531 C 18.140625 4.65625 18.199219 4.699219 18.230469 4.769531 C 18.148438 4.761719 18.09375 4.71875 18.0625 4.644531 Z M 18.0625 4.644531 "></path></g><mask id="mask11"><g filter="url(#alpha)"><rect x="0" y="0" width="25" height="25" style="fill: rgb(0, 0, 0); fill-opacity: 0.223529; stroke: none;"></rect></g></mask><clipPath id="clip12"><rect x="0" y="0" width="25" height="25"></rect></clipPath><g id="surface38" clip-path="url(#clip12)"><path style="stroke: none; fill-rule: evenodd; fill: rgb(110, 109, 110); fill-opacity: 1;" d="M 8.519531 3.644531 C 8.527344 3.683594 8.511719 3.710938 8.480469 3.730469 C 8.140625 3.890625 7.804688 4.066406 7.480469 4.25 C 4.941406 5.894531 3.414062 8.207031 2.894531 11.1875 C 3.363281 8.105469 4.917969 5.75 7.5625 4.125 C 7.871094 3.941406 8.191406 3.78125 8.519531 3.644531 Z M 8.519531 3.644531 "></path></g><mask id="mask12"><g filter="url(#alpha)"><rect x="0" y="0" width="25" height="25" style="fill: rgb(0, 0, 0); fill-opacity: 0.509804; stroke: none;"></rect></g></mask><clipPath id="clip13"><rect x="0" y="0" width="25" height="25"></rect></clipPath><g id="surface41" clip-path="url(#clip13)"><path style="stroke: none; fill-rule: evenodd; fill: rgb(94, 94, 94); fill-opacity: 1;" d="M 18.230469 4.769531 C 18.324219 4.796875 18.390625 4.851562 18.4375 4.9375 C 18.34375 4.910156 18.273438 4.855469 18.230469 4.769531 Z M 18.230469 4.769531 "></path></g><mask id="mask13"><g filter="url(#alpha)"><rect x="0" y="0" width="25" height="25" style="fill: rgb(0, 0, 0); fill-opacity: 0.501961; stroke: none;"></rect></g></mask><clipPath id="clip14"><rect x="0" y="0" width="25" height="25"></rect></clipPath><g id="surface44" clip-path="url(#clip14)"><path style="stroke: none; fill-rule: evenodd; fill: rgb(104, 103, 104); fill-opacity: 1;" d="M 18.4375 4.9375 C 18.53125 4.960938 18.601562 5.015625 18.644531 5.105469 C 18.550781 5.078125 18.484375 5.023438 18.4375 4.9375 Z M 18.4375 4.9375 "></path></g><mask id="mask14"><g filter="url(#alpha)"><rect x="0" y="0" width="25" height="25" style="fill: rgb(0, 0, 0); fill-opacity: 0.0588235; stroke: none;"></rect></g></mask><clipPath id="clip15"><rect x="0" y="0" width="25" height="25"></rect></clipPath><g id="surface47" clip-path="url(#clip15)"><path style="stroke: none; fill-rule: evenodd; fill: rgb(103, 102, 103); fill-opacity: 1;" d="M 18.730469 5.1875 C 18.835938 5.226562 18.921875 5.296875 18.980469 5.394531 C 18.871094 5.359375 18.789062 5.289062 18.730469 5.1875 Z M 18.730469 5.1875 "></path></g><mask id="mask15"><g filter="url(#alpha)"><rect x="0" y="0" width="25" height="25" style="fill: rgb(0, 0, 0); fill-opacity: 0.913725; stroke: none;"></rect></g></mask><clipPath id="clip16"><rect x="0" y="0" width="25" height="25"></rect></clipPath><g id="surface50" clip-path="url(#clip16)"><path style="stroke: none; fill-rule: evenodd; fill: rgb(102, 100, 101); fill-opacity: 1;" d="M 20.3125 6.9375 C 20.371094 6.957031 20.398438 7 20.394531 7.0625 C 20.335938 7.042969 20.308594 7 20.3125 6.9375 Z M 20.3125 6.9375 "></path></g><mask id="mask16"><g filter="url(#alpha)"><rect x="0" y="0" width="25" height="25" style="fill: rgb(0, 0, 0); fill-opacity: 0.937255; stroke: none;"></rect></g></mask><clipPath id="clip17"><rect x="0" y="0" width="25" height="25"></rect></clipPath><g id="surface53" clip-path="url(#clip17)"><path style="stroke: none; fill-rule: evenodd; fill: rgb(98, 96, 97); fill-opacity: 1;" d="M 20.394531 7.0625 C 20.453125 7.082031 20.480469 7.125 20.480469 7.1875 C 20.421875 7.167969 20.394531 7.125 20.394531 7.0625 Z M 20.394531 7.0625 "></path></g><mask id="mask17"><g filter="url(#alpha)"><rect x="0" y="0" width="25" height="25" style="fill: rgb(0, 0, 0); fill-opacity: 0.996078; stroke: none;"></rect></g></mask><clipPath id="clip18"><rect x="0" y="0" width="25" height="25"></rect></clipPath><g id="surface56" clip-path="url(#clip18)"><path style="stroke: none; fill-rule: evenodd; fill: rgb(88, 87, 88); fill-opacity: 1;" d="M 21.644531 9.644531 C 21.753906 9.910156 21.824219 10.1875 21.855469 10.480469 C 21.757812 10.210938 21.691406 9.933594 21.644531 9.644531 Z M 21.644531 9.644531 "></path></g><mask id="mask18"><g filter="url(#alpha)"><rect x="0" y="0" width="25" height="25" style="fill: rgb(0, 0, 0); fill-opacity: 0.0823529; stroke: none;"></rect></g></mask><clipPath id="clip19"><rect x="0" y="0" width="25" height="25"></rect></clipPath><g id="surface59" clip-path="url(#clip19)"><path style="stroke: none; fill-rule: evenodd; fill: rgb(135, 134, 134); fill-opacity: 1;" d="M 2.894531 11.230469 C 2.933594 11.273438 2.949219 11.328125 2.9375 11.394531 C 2.910156 11.410156 2.882812 11.421875 2.855469 11.4375 C 2.847656 11.363281 2.863281 11.292969 2.894531 11.230469 Z M 2.894531 11.230469 "></path></g><mask id="mask19"><g filter="url(#alpha)"><rect x="0" y="0" width="25" height="25" style="fill: rgb(0, 0, 0); fill-opacity: 0.0196078; stroke: none;"></rect></g></mask><clipPath id="clip20"><rect x="0" y="0" width="25" height="25"></rect></clipPath><g id="surface62" clip-path="url(#clip20)"><path style="stroke: none; fill-rule: evenodd; fill: rgb(118, 117, 117); fill-opacity: 1;" d="M 21.980469 11.230469 C 22.03125 11.300781 22.058594 11.382812 22.0625 11.480469 C 21.988281 11.421875 21.960938 11.335938 21.980469 11.230469 Z M 21.980469 11.230469 "></path></g><mask id="mask20"><g filter="url(#alpha)"><rect x="0" y="0" width="25" height="25" style="fill: rgb(0, 0, 0); fill-opacity: 0.94902; stroke: none;"></rect></g></mask><clipPath id="clip21"><rect x="0" y="0" width="25" height="25"></rect></clipPath><g id="surface65" clip-path="url(#clip21)"><path style="stroke: none; fill-rule: evenodd; fill: rgb(93, 92, 93); fill-opacity: 1;" d="M 2.9375 11.394531 C 2.921875 11.597656 2.894531 11.792969 2.855469 11.980469 C 2.855469 11.796875 2.855469 11.617188 2.855469 11.4375 C 2.882812 11.421875 2.910156 11.410156 2.9375 11.394531 Z M 2.9375 11.394531 "></path></g><mask id="mask21"><g filter="url(#alpha)"><rect x="0" y="0" width="25" height="25" style="fill: rgb(0, 0, 0); fill-opacity: 0.0156863; stroke: none;"></rect></g></mask><clipPath id="clip22"><rect x="0" y="0" width="25" height="25"></rect></clipPath><g id="surface68" clip-path="url(#clip22)"><path style="stroke: none; fill-rule: evenodd; fill: rgb(112, 111, 112); fill-opacity: 1;" d="M 22.0625 12.980469 C 22.070312 13.175781 22.0625 13.367188 22.042969 13.5625 C 22.03125 13.601562 22.007812 13.628906 21.980469 13.644531 C 21.972656 13.414062 22 13.191406 22.0625 12.980469 Z M 22.0625 12.980469 "></path></g><mask id="mask22"><g filter="url(#alpha)"><rect x="0" y="0" width="25" height="25" style="fill: rgb(0, 0, 0); fill-opacity: 0.901961; stroke: none;"></rect></g></mask><clipPath id="clip23"><rect x="0" y="0" width="25" height="25"></rect></clipPath><g id="surface71" clip-path="url(#clip23)"><path style="stroke: none; fill-rule: evenodd; fill: rgb(109, 108, 108); fill-opacity: 1;" d="M 2.855469 12.980469 C 2.925781 13.214844 2.941406 13.449219 2.894531 13.6875 C 2.859375 13.453125 2.84375 13.21875 2.855469 12.980469 Z M 2.855469 12.980469 "></path></g><mask id="mask23"><g filter="url(#alpha)"><rect x="0" y="0" width="25" height="25" style="fill: rgb(0, 0, 0); fill-opacity: 0.0235294; stroke: none;"></rect></g></mask><clipPath id="clip24"><rect x="0" y="0" width="25" height="25"></rect></clipPath><g id="surface74" clip-path="url(#clip24)"><path style="stroke: none; fill-rule: evenodd; fill: rgb(130, 129, 129); fill-opacity: 1;" d="M 2.894531 13.730469 C 2.957031 13.753906 2.984375 13.804688 2.980469 13.875 C 2.976562 13.917969 2.964844 13.953125 2.9375 13.980469 C 2.910156 13.898438 2.898438 13.816406 2.894531 13.730469 Z M 2.894531 13.730469 "></path></g><mask id="mask24"><g filter="url(#alpha)"><rect x="0" y="0" width="25" height="25" style="fill: rgb(0, 0, 0); fill-opacity: 0.0235294; stroke: none;"></rect></g></mask><clipPath id="clip25"><rect x="0" y="0" width="25" height="25"></rect></clipPath><g id="surface77" clip-path="url(#clip25)"><path style="stroke: none; fill-rule: evenodd; fill: rgb(128, 127, 127); fill-opacity: 1;" d="M 2.9375 14.019531 C 2.964844 14.027344 2.984375 14.039062 3 14.0625 C 3.144531 14.835938 3.359375 15.585938 3.644531 16.3125 C 3.285156 15.589844 3.050781 14.828125 2.9375 14.019531 Z M 2.9375 14.019531 "></path></g><mask id="mask25"><g filter="url(#alpha)"><rect x="0" y="0" width="25" height="25" style="fill: rgb(0, 0, 0); fill-opacity: 0.678431; stroke: none;"></rect></g></mask><clipPath id="clip26"><rect x="0" y="0" width="25" height="25"></rect></clipPath><g id="surface80" clip-path="url(#clip26)"><path style="stroke: none; fill-rule: evenodd; fill: rgb(136, 135, 136); fill-opacity: 1;" d="M 3.6875 16.394531 C 3.894531 16.785156 4.105469 17.171875 4.3125 17.5625 C 4.039062 17.210938 3.832031 16.824219 3.6875 16.394531 Z M 3.6875 16.394531 "></path></g><mask id="mask26"><g filter="url(#alpha)"><rect x="0" y="0" width="25" height="25" style="fill: rgb(0, 0, 0); fill-opacity: 0.0313725; stroke: none;"></rect></g></mask><clipPath id="clip27"><rect x="0" y="0" width="25" height="25"></rect></clipPath><g id="surface83" clip-path="url(#clip27)"><path style="stroke: none; fill-rule: evenodd; fill: rgb(124, 122, 123); fill-opacity: 1;" d="M 4.3125 17.5625 C 4.371094 17.582031 4.398438 17.625 4.394531 17.6875 C 4.335938 17.667969 4.308594 17.625 4.3125 17.5625 Z M 4.3125 17.5625 "></path></g><mask id="mask27"><g filter="url(#alpha)"><rect x="0" y="0" width="25" height="25" style="fill: rgb(0, 0, 0); fill-opacity: 0.129412; stroke: none;"></rect></g></mask><clipPath id="clip28"><rect x="0" y="0" width="25" height="25"></rect></clipPath><g id="surface86" clip-path="url(#clip28)"><path style="stroke: none; fill-rule: evenodd; fill: rgb(128, 125, 126); fill-opacity: 1;" d="M 4.480469 17.8125 C 4.539062 17.832031 4.566406 17.875 4.5625 17.9375 C 4.503906 17.917969 4.476562 17.875 4.480469 17.8125 Z M 4.480469 17.8125 "></path></g><mask id="mask28"><g filter="url(#alpha)"><rect x="0" y="0" width="25" height="25" style="fill: rgb(0, 0, 0); fill-opacity: 0.0117647; stroke: none;"></rect></g></mask><clipPath id="clip29"><rect x="0" y="0" width="25" height="25"></rect></clipPath><g id="surface89" clip-path="url(#clip29)"><path style="stroke: none; fill-rule: evenodd; fill: rgb(132, 132, 132); fill-opacity: 1;" d="M 4.5625 17.9375 C 4.621094 17.957031 4.648438 18 4.644531 18.0625 C 4.585938 18.042969 4.558594 18 4.5625 17.9375 Z M 4.5625 17.9375 "></path></g><mask id="mask29"><g filter="url(#alpha)"><rect x="0" y="0" width="25" height="25" style="fill: rgb(0, 0, 0); fill-opacity: 0.0352941; stroke: none;"></rect></g></mask><clipPath id="clip30"><rect x="0" y="0" width="25" height="25"></rect></clipPath><g id="surface92" clip-path="url(#clip30)"><path style="stroke: none; fill-rule: evenodd; fill: rgb(107, 107, 107); fill-opacity: 1;" d="M 4.644531 18.0625 C 4.726562 18.085938 4.769531 18.140625 4.769531 18.230469 C 4.710938 18.191406 4.667969 18.132812 4.644531 18.0625 Z M 4.644531 18.0625 "></path></g><mask id="mask30"><g filter="url(#alpha)"><rect x="0" y="0" width="25" height="25" style="fill: rgb(0, 0, 0); fill-opacity: 0.0705882; stroke: none;"></rect></g></mask><clipPath id="clip31"><rect x="0" y="0" width="25" height="25"></rect></clipPath><g id="surface95" clip-path="url(#clip31)"><path style="stroke: none; fill-rule: evenodd; fill: rgb(117, 116, 116); fill-opacity: 1;" d="M 4.9375 18.4375 C 5.023438 18.484375 5.078125 18.550781 5.105469 18.644531 C 5.015625 18.601562 4.960938 18.53125 4.9375 18.4375 Z M 4.9375 18.4375 "></path></g><mask id="mask31"><g filter="url(#alpha)"><rect x="0" y="0" width="25" height="25" style="fill: rgb(0, 0, 0); fill-opacity: 0.0588235; stroke: none;"></rect></g></mask><clipPath id="clip32"><rect x="0" y="0" width="25" height="25"></rect></clipPath><g id="surface98" clip-path="url(#clip32)"><path style="stroke: none; fill-rule: evenodd; fill: rgb(111, 109, 110); fill-opacity: 1;" d="M 5.1875 18.730469 C 5.273438 18.773438 5.328125 18.84375 5.355469 18.9375 C 5.265625 18.890625 5.210938 18.824219 5.1875 18.730469 Z M 5.1875 18.730469 "></path></g><mask id="mask32"><g filter="url(#alpha)"><rect x="0" y="0" width="25" height="25" style="fill: rgb(0, 0, 0); fill-opacity: 0.968627; stroke: none;"></rect></g></mask><clipPath id="clip33"><rect x="0" y="0" width="25" height="25"></rect></clipPath><g id="surface101" clip-path="url(#clip33)"><path style="stroke: none; fill-rule: evenodd; fill: rgb(104, 103, 103); fill-opacity: 1;" d="M 6.480469 19.980469 C 6.542969 19.976562 6.585938 20.003906 6.605469 20.0625 C 6.539062 20.066406 6.5 20.039062 6.480469 19.980469 Z M 6.480469 19.980469 "></path></g><mask id="mask33"><g filter="url(#alpha)"><rect x="0" y="0" width="25" height="25" style="fill: rgb(0, 0, 0); fill-opacity: 0.996078; stroke: none;"></rect></g></mask><clipPath id="clip34"><rect x="0" y="0" width="25" height="25"></rect></clipPath><g id="surface104" clip-path="url(#clip34)"><path style="stroke: none; fill-rule: evenodd; fill: rgb(52, 52, 52); fill-opacity: 1;" d="M 18.4375 19.980469 C 18.320312 20.085938 18.195312 20.183594 18.0625 20.269531 C 18.054688 20.226562 18.0625 20.183594 18.082031 20.144531 C 18.191406 20.105469 18.273438 20.035156 18.332031 19.9375 C 18.359375 19.96875 18.394531 19.984375 18.4375 19.980469 Z M 18.4375 19.980469 "></path></g><mask id="mask34"><g filter="url(#alpha)"><rect x="0" y="0" width="25" height="25" style="fill: rgb(0, 0, 0); fill-opacity: 0.933333; stroke: none;"></rect></g></mask><clipPath id="clip35"><rect x="0" y="0" width="25" height="25"></rect></clipPath><g id="surface107" clip-path="url(#clip35)"><path style="stroke: none; fill-rule: evenodd; fill: rgb(95, 94, 94); fill-opacity: 1;" d="M 7.0625 20.394531 C 7.125 20.394531 7.167969 20.421875 7.1875 20.480469 C 7.125 20.480469 7.082031 20.453125 7.0625 20.394531 Z M 7.0625 20.394531 "></path></g><mask id="mask35"><g filter="url(#alpha)"><rect x="0" y="0" width="25" height="25" style="fill: rgb(0, 0, 0); fill-opacity: 0.917647; stroke: none;"></rect></g></mask><clipPath id="clip36"><rect x="0" y="0" width="25" height="25"></rect></clipPath><g id="surface110" clip-path="url(#clip36)"><path style="stroke: none; fill-rule: evenodd; fill: rgb(101, 101, 101); fill-opacity: 1;" d="M 7.1875 20.480469 C 7.25 20.476562 7.292969 20.503906 7.3125 20.5625 C 7.25 20.566406 7.207031 20.539062 7.1875 20.480469 Z M 7.1875 20.480469 "></path></g><mask id="mask36"><g filter="url(#alpha)"><rect x="0" y="0" width="25" height="25" style="fill: rgb(0, 0, 0); fill-opacity: 0.847059; stroke: none;"></rect></g></mask><clipPath id="clip37"><rect x="0" y="0" width="25" height="25"></rect></clipPath><g id="surface113" clip-path="url(#clip37)"><path style="stroke: none; fill-rule: evenodd; fill: rgb(119, 117, 118); fill-opacity: 1;" d="M 7.3125 20.5625 C 7.375 20.558594 7.417969 20.585938 7.4375 20.644531 C 7.375 20.648438 7.332031 20.621094 7.3125 20.5625 Z M 7.3125 20.5625 "></path></g><mask id="mask37"><g filter="url(#alpha)"><rect x="0" y="0" width="25" height="25" style="fill: rgb(0, 0, 0); fill-opacity: 0.384314; stroke: none;"></rect></g></mask><clipPath id="clip38"><rect x="0" y="0" width="25" height="25"></rect></clipPath><g id="surface116" clip-path="url(#clip38)"><path style="stroke: none; fill-rule: evenodd; fill: rgb(117, 115, 116); fill-opacity: 1;" d="M 16.355469 21.230469 C 16.3125 21.277344 16.257812 21.304688 16.1875 21.3125 C 16.21875 21.246094 16.277344 21.21875 16.355469 21.230469 Z M 16.355469 21.230469 "></path></g><mask id="mask38"><g filter="url(#alpha)"><rect x="0" y="0" width="25" height="25" style="fill: rgb(0, 0, 0); fill-opacity: 0.980392; stroke: none;"></rect></g></mask><clipPath id="clip39"><rect x="0" y="0" width="25" height="25"></rect></clipPath><g id="surface119" clip-path="url(#clip39)"><path style="stroke: none; fill-rule: evenodd; fill: rgb(74, 73, 74); fill-opacity: 1;" d="M 9.8125 21.6875 C 10.050781 21.699219 10.273438 21.753906 10.480469 21.855469 C 10.242188 21.835938 10.019531 21.78125 9.8125 21.6875 Z M 9.8125 21.6875 "></path></g><mask id="mask39"><g filter="url(#alpha)"><rect x="0" y="0" width="25" height="25" style="fill: rgb(0, 0, 0); fill-opacity: 0.0196078; stroke: none;"></rect></g></mask><clipPath id="clip40"><rect x="0" y="0" width="25" height="25"></rect></clipPath><g id="surface122" clip-path="url(#clip40)"><path style="stroke: none; fill-rule: evenodd; fill: rgb(119, 118, 119); fill-opacity: 1;" d="M 11.230469 21.980469 C 11.335938 21.960938 11.421875 21.988281 11.480469 22.0625 C 11.382812 22.058594 11.300781 22.03125 11.230469 21.980469 Z M 11.230469 21.980469 "></path></g><mask id="mask40"><g filter="url(#alpha)"><rect x="0" y="0" width="25" height="25" style="fill: rgb(0, 0, 0); fill-opacity: 0.027451; stroke: none;"></rect></g></mask><clipPath id="clip41"><rect x="0" y="0" width="25" height="25"></rect></clipPath><g id="surface125" clip-path="url(#clip41)"><path style="stroke: none; fill-rule: evenodd; fill: rgb(103, 102, 102); fill-opacity: 1;" d="M 13.644531 21.980469 C 13.613281 22.011719 13.574219 22.03125 13.519531 22.042969 C 13.339844 22.0625 13.160156 22.070312 12.980469 22.0625 C 13.191406 22.007812 13.414062 21.980469 13.644531 21.980469 Z M 13.644531 21.980469 "></path></g></defs><g id="surface1"><use xlink:href="#surface5" mask="url(#mask0)"></use><path style="stroke: none; fill-rule: evenodd; fill: rgb(14, 12, 13); fill-opacity: 1;" d="M 11.980469 2.855469 C 12.3125 2.855469 12.644531 2.855469 12.980469 2.855469 C 14.019531 2.945312 15.035156 3.183594 16.019531 3.5625 C 16.046875 3.558594 16.058594 3.542969 16.0625 3.519531 C 16.078125 3.519531 16.089844 3.519531 16.105469 3.519531 C 16.136719 3.613281 16.207031 3.65625 16.3125 3.644531 C 16.578125 3.804688 16.855469 3.945312 17.144531 4.0625 C 17.269531 4.167969 17.410156 4.25 17.5625 4.3125 C 17.5 4.40625 17.511719 4.4375 17.605469 4.394531 C 17.667969 4.4375 17.738281 4.464844 17.8125 4.480469 C 17.832031 4.539062 17.875 4.566406 17.9375 4.5625 C 17.957031 4.621094 18 4.648438 18.0625 4.644531 C 18.09375 4.71875 18.148438 4.761719 18.230469 4.769531 C 18.273438 4.855469 18.34375 4.910156 18.4375 4.9375 C 18.484375 5.023438 18.550781 5.078125 18.644531 5.105469 C 18.6875 5.117188 18.714844 5.144531 18.730469 5.1875 C 18.789062 5.289062 18.871094 5.359375 18.980469 5.394531 C 19.105469 5.492188 19.214844 5.605469 19.3125 5.730469 C 19.328125 5.816406 19.355469 5.898438 19.394531 5.980469 C 19.511719 6.003906 19.609375 6.058594 19.6875 6.144531 C 19.703125 6.214844 19.726562 6.285156 19.75 6.355469 C 19.765625 6.339844 19.777344 6.328125 19.792969 6.3125 C 19.867188 6.46875 19.953125 6.621094 20.042969 6.769531 C 20.082031 6.742188 20.132812 6.742188 20.1875 6.769531 C 20.261719 6.800781 20.300781 6.859375 20.3125 6.9375 C 20.308594 7 20.335938 7.042969 20.394531 7.0625 C 20.394531 7.125 20.421875 7.167969 20.480469 7.1875 C 20.527344 7.269531 20.53125 7.355469 20.5 7.4375 C 20.582031 7.523438 20.671875 7.59375 20.769531 7.644531 C 20.761719 7.75 20.800781 7.820312 20.894531 7.855469 C 21.226562 8.414062 21.476562 9.011719 21.644531 9.644531 C 21.691406 9.933594 21.757812 10.210938 21.855469 10.480469 C 21.925781 10.71875 21.96875 10.96875 21.980469 11.230469 C 21.960938 11.335938 21.988281 11.421875 22.0625 11.480469 C 22.0625 11.980469 22.0625 12.480469 22.0625 12.980469 C 22 13.191406 21.972656 13.414062 21.980469 13.644531 C 21.980469 13.671875 21.980469 13.703125 21.980469 13.730469 C 21.945312 13.769531 21.902344 13.804688 21.855469 13.832031 C 21.894531 13.945312 21.90625 14.066406 21.894531 14.1875 C 21.898438 14.300781 21.886719 14.414062 21.855469 14.519531 C 21.800781 14.542969 21.765625 14.585938 21.75 14.644531 C 21.703125 14.796875 21.683594 14.949219 21.6875 15.105469 C 21.644531 15.109375 21.609375 15.09375 21.582031 15.0625 C 21.464844 15.242188 21.445312 15.4375 21.519531 15.644531 C 21.367188 16.132812 21.160156 16.589844 20.894531 17.019531 C 20.746094 17.082031 20.675781 17.1875 20.6875 17.332031 C 20.648438 17.359375 20.613281 17.351562 20.582031 17.3125 C 20.5625 17.363281 20.585938 17.398438 20.644531 17.417969 C 20.605469 17.429688 20.5625 17.445312 20.519531 17.457031 C 20.558594 17.488281 20.566406 17.523438 20.542969 17.5625 C 20.484375 17.609375 20.421875 17.609375 20.355469 17.5625 C 20.421875 17.632812 20.449219 17.714844 20.4375 17.8125 C 20.25 18.105469 20.039062 18.382812 19.8125 18.644531 C 19.722656 18.601562 19.636719 18.605469 19.5625 18.667969 C 19.601562 18.703125 19.601562 18.742188 19.5625 18.792969 C 19.519531 18.863281 19.464844 18.917969 19.394531 18.957031 C 19.410156 18.972656 19.421875 18.984375 19.4375 19 C 19.386719 19.019531 19.351562 19 19.332031 18.9375 C 19.316406 19.007812 19.324219 19.078125 19.355469 19.144531 C 19.3125 19.148438 19.277344 19.136719 19.25 19.105469 C 19.199219 19.167969 19.152344 19.238281 19.105469 19.3125 C 18.996094 19.316406 18.914062 19.367188 18.855469 19.457031 C 18.894531 19.488281 18.902344 19.523438 18.875 19.5625 C 18.804688 19.5625 18.734375 19.5625 18.667969 19.5625 C 18.648438 19.621094 18.613281 19.671875 18.5625 19.707031 C 18.589844 19.722656 18.617188 19.734375 18.644531 19.75 C 18.523438 19.753906 18.46875 19.816406 18.480469 19.9375 C 18.480469 19.964844 18.464844 19.980469 18.4375 19.980469 C 18.394531 19.984375 18.359375 19.96875 18.332031 19.9375 C 18.273438 20.035156 18.191406 20.105469 18.082031 20.144531 C 18.0625 20.183594 18.054688 20.226562 18.0625 20.269531 C 18.019531 20.296875 17.980469 20.328125 17.9375 20.355469 C 17.839844 20.375 17.75 20.375 17.667969 20.355469 C 17.597656 20.40625 17.550781 20.476562 17.519531 20.5625 C 17.449219 20.53125 17.378906 20.542969 17.3125 20.605469 C 17.203125 20.722656 17.09375 20.832031 16.980469 20.9375 C 16.789062 21.066406 16.582031 21.164062 16.355469 21.230469 C 16.277344 21.21875 16.21875 21.246094 16.1875 21.3125 C 16.089844 21.375 15.976562 21.417969 15.855469 21.4375 C 15.742188 21.421875 15.648438 21.449219 15.5625 21.519531 C 15.410156 21.453125 15.296875 21.492188 15.230469 21.644531 C 15.148438 21.65625 15.070312 21.640625 15 21.605469 C 14.882812 21.6875 14.765625 21.757812 14.644531 21.8125 C 14.320312 21.914062 13.988281 21.96875 13.644531 21.980469 C 13.414062 21.980469 13.191406 22.007812 12.980469 22.0625 C 12.480469 22.0625 11.980469 22.0625 11.480469 22.0625 C 11.421875 21.988281 11.335938 21.960938 11.230469 21.980469 C 10.96875 21.972656 10.71875 21.929688 10.480469 21.855469 C 10.273438 21.753906 10.050781 21.699219 9.8125 21.6875 C 9.507812 21.632812 9.214844 21.535156 8.9375 21.394531 C 8.882812 21.265625 8.785156 21.179688 8.644531 21.144531 C 8.644531 21.089844 8.644531 21.035156 8.644531 20.980469 C 8.574219 20.972656 8.503906 20.988281 8.4375 21.019531 C 8.316406 20.988281 8.246094 20.933594 8.230469 20.855469 C 8.140625 20.851562 8.125 20.878906 8.1875 20.9375 C 8.167969 20.953125 8.144531 20.964844 8.125 20.980469 C 8.113281 20.9375 8.078125 20.894531 8.019531 20.855469 C 7.890625 20.914062 7.851562 20.878906 7.894531 20.75 C 7.796875 20.691406 7.707031 20.683594 7.625 20.730469 C 7.574219 20.6875 7.554688 20.648438 7.5625 20.605469 C 7.523438 20.628906 7.484375 20.644531 7.4375 20.644531 C 7.417969 20.585938 7.375 20.558594 7.3125 20.5625 C 7.292969 20.503906 7.25 20.476562 7.1875 20.480469 C 7.167969 20.421875 7.125 20.394531 7.0625 20.394531 C 6.886719 20.316406 6.734375 20.207031 6.605469 20.0625 C 6.585938 20.003906 6.542969 19.976562 6.480469 19.980469 C 6.34375 19.910156 6.230469 19.816406 6.144531 19.6875 C 6.085938 19.605469 6.015625 19.53125 5.9375 19.457031 C 6.042969 19.371094 6.035156 19.335938 5.917969 19.355469 C 5.816406 19.285156 5.714844 19.230469 5.605469 19.1875 C 5.507812 19.117188 5.421875 19.035156 5.355469 18.9375 C 5.328125 18.84375 5.273438 18.773438 5.1875 18.730469 C 5.144531 18.714844 5.117188 18.6875 5.105469 18.644531 C 5.078125 18.550781 5.023438 18.484375 4.9375 18.4375 C 4.851562 18.390625 4.796875 18.324219 4.769531 18.230469 C 4.769531 18.140625 4.726562 18.085938 4.644531 18.0625 C 4.648438 18 4.621094 17.957031 4.5625 17.9375 C 4.566406 17.875 4.539062 17.832031 4.480469 17.8125 C 4.421875 17.792969 4.394531 17.75 4.394531 17.6875 C 4.398438 17.625 4.371094 17.582031 4.3125 17.5625 C 4.105469 17.171875 3.894531 16.785156 3.6875 16.394531 C 3.652344 16.382812 3.640625 16.355469 3.644531 16.3125 C 3.359375 15.585938 3.144531 14.835938 3 14.0625 C 2.984375 14.039062 2.964844 14.027344 2.9375 14.019531 C 2.9375 14.007812 2.9375 13.992188 2.9375 13.980469 C 2.964844 13.953125 2.976562 13.917969 2.980469 13.875 C 2.984375 13.804688 2.957031 13.753906 2.894531 13.730469 C 2.894531 13.714844 2.894531 13.703125 2.894531 13.6875 C 2.941406 13.449219 2.925781 13.214844 2.855469 12.980469 C 2.855469 12.644531 2.855469 12.3125 2.855469 11.980469 C 2.894531 11.792969 2.921875 11.597656 2.9375 11.394531 C 2.949219 11.328125 2.933594 11.273438 2.894531 11.230469 C 2.894531 11.214844 2.894531 11.203125 2.894531 11.1875 C 3.414062 8.207031 4.941406 5.894531 7.480469 4.25 C 7.804688 4.066406 8.140625 3.890625 8.480469 3.730469 C 8.511719 3.710938 8.527344 3.683594 8.519531 3.644531 C 8.535156 3.644531 8.546875 3.644531 8.5625 3.644531 C 8.566406 3.667969 8.578125 3.683594 8.605469 3.6875 C 8.703125 3.660156 8.773438 3.605469 8.8125 3.519531 C 8.828125 3.519531 8.839844 3.519531 8.855469 3.519531 C 8.855469 3.542969 8.871094 3.558594 8.894531 3.5625 C 9.273438 3.402344 9.664062 3.277344 10.0625 3.1875 C 10.699219 3.035156 11.339844 2.921875 11.980469 2.855469 Z M 11.980469 2.855469 "></path><use xlink:href="#surface8" mask="url(#mask1)"></use><use xlink:href="#surface11" mask="url(#mask2)"></use><use xlink:href="#surface14" mask="url(#mask3)"></use><use xlink:href="#surface17" mask="url(#mask4)"></use><use xlink:href="#surface20" mask="url(#mask5)"></use><path style="stroke: none; fill-rule: evenodd; fill: rgb(11, 22, 12); fill-opacity: 1;" d="M 15.3125 4.230469 C 15.164062 4.179688 15.011719 4.152344 14.855469 4.144531 C 15.066406 4.066406 15.296875 4.007812 15.542969 3.980469 C 15.617188 3.992188 15.695312 4.007812 15.769531 4.019531 C 15.644531 4.046875 15.519531 4.078125 15.394531 4.105469 C 15.347656 4.136719 15.320312 4.175781 15.3125 4.230469 Z M 15.3125 4.230469 "></path><path style="stroke: none; fill-rule: evenodd; fill: rgb(24, 67, 33); fill-opacity: 1;" d="M 9.855469 4.230469 C 9.785156 4.230469 9.714844 4.230469 9.644531 4.230469 C 9.71875 4.121094 9.789062 4.121094 9.855469 4.230469 Z M 9.855469 4.230469 "></path><use xlink:href="#surface23" mask="url(#mask6)"></use><use xlink:href="#surface26" mask="url(#mask7)"></use><path style="stroke: none; fill-rule: evenodd; fill: rgb(23, 80, 41); fill-opacity: 1;" d="M 14.8125 4.3125 C 14.824219 4.414062 14.792969 4.496094 14.730469 4.5625 C 14.71875 4.460938 14.746094 4.378906 14.8125 4.3125 Z M 14.8125 4.3125 "></path><path style="stroke: none; fill-rule: evenodd; fill: rgb(19, 142, 55); fill-opacity: 1;" d="M 15.4375 4.3125 C 15.621094 4.351562 15.804688 4.40625 15.980469 4.480469 C 15.980469 4.523438 15.996094 4.566406 16.019531 4.605469 C 16.101562 4.644531 16.183594 4.660156 16.269531 4.644531 C 16.335938 4.78125 16.449219 4.835938 16.605469 4.8125 C 16.617188 4.8125 16.632812 4.8125 16.644531 4.8125 C 16.644531 4.867188 16.644531 4.921875 16.644531 4.980469 C 16.730469 4.980469 16.8125 4.980469 16.894531 4.980469 C 16.972656 5.019531 17.058594 5.054688 17.144531 5.082031 C 17.179688 5.125 17.195312 5.175781 17.1875 5.230469 C 17.285156 5.261719 17.378906 5.296875 17.480469 5.332031 C 17.667969 5.445312 17.835938 5.578125 17.980469 5.730469 C 18.023438 5.871094 18.121094 5.953125 18.269531 5.980469 C 18.410156 6.074219 18.535156 6.1875 18.644531 6.3125 C 18.648438 6.425781 18.703125 6.480469 18.8125 6.480469 C 19.449219 7.167969 19.960938 7.945312 20.355469 8.8125 C 20.421875 9.027344 20.464844 9.25 20.480469 9.480469 C 20.535156 9.480469 20.589844 9.480469 20.644531 9.480469 C 20.730469 9.746094 20.777344 10.023438 20.792969 10.3125 C 20.808594 10.363281 20.84375 10.394531 20.894531 10.394531 C 20.921875 10.617188 20.941406 10.839844 20.957031 11.0625 C 20.984375 11.128906 21.019531 11.183594 21.0625 11.230469 C 21.054688 11.269531 21.070312 11.296875 21.105469 11.3125 C 21.109375 12.207031 21.082031 13.09375 21.019531 13.980469 C 20.730469 15.558594 20.0625 16.945312 19.019531 18.144531 C 18.925781 18.195312 18.871094 18.28125 18.855469 18.394531 C 18.742188 18.507812 18.617188 18.605469 18.480469 18.6875 C 18.394531 18.785156 18.3125 18.882812 18.230469 18.980469 C 18.136719 19.003906 18.066406 19.058594 18.019531 19.144531 C 17.796875 19.332031 17.558594 19.496094 17.3125 19.644531 C 17.214844 19.644531 17.117188 19.644531 17.019531 19.644531 C 17.019531 19.703125 17.019531 19.757812 17.019531 19.8125 C 16.9375 19.8125 16.855469 19.8125 16.769531 19.8125 C 16.769531 19.867188 16.769531 19.921875 16.769531 19.980469 C 16.699219 19.96875 16.660156 19.996094 16.644531 20.0625 C 16.5 20.117188 16.375 20.199219 16.269531 20.3125 C 15.957031 20.4375 15.636719 20.546875 15.3125 20.644531 C 15.148438 20.6875 14.980469 20.714844 14.8125 20.730469 C 14.703125 20.402344 14.621094 20.070312 14.5625 19.730469 C 14.558594 19.589844 14.542969 19.449219 14.519531 19.3125 C 14.589844 19.320312 14.632812 19.292969 14.644531 19.230469 C 14.8125 19.238281 14.953125 19.183594 15.0625 19.0625 C 15.078125 19.0625 15.089844 19.0625 15.105469 19.0625 C 15.191406 19.074219 15.273438 19.0625 15.355469 19.019531 C 15.539062 18.914062 15.734375 18.832031 15.9375 18.769531 C 15.964844 18.734375 15.976562 18.691406 15.980469 18.644531 C 16.066406 18.574219 16.164062 18.519531 16.269531 18.480469 C 16.371094 18.449219 16.46875 18.410156 16.5625 18.355469 C 16.609375 18.324219 16.636719 18.28125 16.644531 18.230469 C 16.851562 18.121094 17.074219 18.054688 17.3125 18.019531 C 17.269531 17.992188 17.230469 17.964844 17.1875 17.9375 C 17.269531 17.800781 17.382812 17.6875 17.519531 17.605469 C 17.574219 17.511719 17.617188 17.414062 17.644531 17.3125 C 17.730469 17.285156 17.785156 17.230469 17.8125 17.144531 C 17.816406 17.058594 17.855469 17 17.9375 16.980469 C 18.113281 16.9375 18.195312 16.824219 18.1875 16.644531 C 18.269531 16.625 18.308594 16.566406 18.3125 16.480469 C 18.394531 16.457031 18.433594 16.402344 18.4375 16.3125 C 18.546875 16.234375 18.617188 16.121094 18.644531 15.980469 C 18.734375 15.742188 18.847656 15.523438 18.980469 15.3125 C 19.136719 15.121094 19.226562 14.898438 19.25 14.644531 C 19.425781 14.339844 19.5 14.007812 19.480469 13.644531 C 19.492188 13.421875 19.507812 13.203125 19.519531 12.980469 C 19.546875 12.792969 19.5625 12.597656 19.5625 12.394531 C 19.570312 12.109375 19.542969 11.832031 19.480469 11.5625 C 19.480469 11.480469 19.480469 11.394531 19.480469 11.3125 C 19.480469 11.089844 19.480469 10.867188 19.480469 10.644531 C 19.4375 10.644531 19.394531 10.644531 19.355469 10.644531 C 19.289062 10.515625 19.25 10.378906 19.230469 10.230469 C 19.214844 10.058594 19.171875 9.890625 19.105469 9.730469 C 19.074219 9.683594 19.03125 9.65625 18.980469 9.644531 C 18.921875 9.535156 18.867188 9.421875 18.8125 9.3125 C 18.8125 9.230469 18.8125 9.144531 18.8125 9.0625 C 18.769531 9.0625 18.730469 9.0625 18.6875 9.0625 C 18.15625 8.101562 17.445312 7.292969 16.5625 6.644531 C 16.488281 6.488281 16.363281 6.390625 16.1875 6.355469 C 16.152344 6.320312 16.136719 6.277344 16.144531 6.230469 C 16.089844 6.230469 16.035156 6.230469 15.980469 6.230469 C 15.960938 6.164062 15.917969 6.113281 15.855469 6.082031 C 15.71875 6.035156 15.578125 6 15.4375 5.980469 C 15.226562 5.917969 15.019531 5.855469 14.8125 5.792969 C 14.726562 5.746094 14.644531 5.699219 14.5625 5.644531 C 14.5625 5.5625 14.5625 5.480469 14.5625 5.394531 C 14.753906 5.390625 14.769531 5.351562 14.605469 5.269531 C 14.636719 5.207031 14.652344 5.136719 14.644531 5.0625 C 14.703125 5.0625 14.757812 5.0625 14.8125 5.0625 C 14.8125 4.976562 14.839844 4.898438 14.894531 4.832031 C 14.859375 4.632812 14.84375 4.433594 14.855469 4.230469 C 15.050781 4.242188 15.246094 4.269531 15.4375 4.3125 Z M 15.4375 4.3125 "></path><use xlink:href="#surface29" mask="url(#mask8)"></use><path style="stroke: none; fill-rule: evenodd; fill: rgb(19, 142, 55); fill-opacity: 1;" d="M 9.644531 4.230469 C 9.714844 4.230469 9.785156 4.230469 9.855469 4.230469 C 9.910156 4.363281 9.949219 4.503906 9.980469 4.644531 C 9.96875 4.746094 9.996094 4.828125 10.0625 4.894531 C 10.105469 5.039062 10.160156 5.179688 10.230469 5.3125 C 10.261719 5.441406 10.261719 5.566406 10.230469 5.6875 C 10.121094 5.699219 10.039062 5.742188 9.980469 5.8125 C 9.964844 5.8125 9.953125 5.8125 9.9375 5.8125 C 9.796875 5.8125 9.6875 5.871094 9.605469 5.980469 C 9.289062 6.078125 8.988281 6.214844 8.707031 6.394531 C 7.882812 6.941406 7.183594 7.605469 6.605469 8.394531 C 6.546875 8.394531 6.492188 8.394531 6.4375 8.394531 C 6.4375 8.480469 6.4375 8.5625 6.4375 8.644531 C 6.261719 8.9375 6.109375 9.242188 5.980469 9.5625 C 5.886719 9.683594 5.832031 9.820312 5.8125 9.980469 C 5.796875 9.980469 5.785156 9.980469 5.769531 9.980469 C 5.734375 9.992188 5.722656 10.019531 5.730469 10.0625 C 5.6875 10.0625 5.644531 10.0625 5.605469 10.0625 C 5.546875 10.480469 5.492188 10.894531 5.4375 11.3125 C 5.398438 11.414062 5.382812 11.527344 5.394531 11.644531 C 5.285156 12.089844 5.285156 12.535156 5.394531 12.980469 C 5.390625 13.175781 5.394531 13.367188 5.417969 13.5625 C 5.476562 13.695312 5.511719 13.832031 5.519531 13.980469 C 5.496094 14.167969 5.535156 14.335938 5.644531 14.480469 C 5.726562 14.726562 5.8125 14.976562 5.894531 15.230469 C 6.03125 15.441406 6.140625 15.664062 6.230469 15.894531 C 6.21875 16.046875 6.277344 16.15625 6.394531 16.230469 C 6.601562 16.53125 6.820312 16.824219 7.0625 17.105469 C 7.371094 17.410156 7.675781 17.714844 7.980469 18.019531 C 8.308594 18.230469 8.640625 18.4375 8.980469 18.644531 C 9.054688 18.855469 9.207031 18.941406 9.4375 18.894531 C 9.507812 18.898438 9.5625 18.925781 9.605469 18.980469 C 9.660156 19.042969 9.730469 19.097656 9.8125 19.144531 C 9.851562 19.195312 9.863281 19.25 9.855469 19.3125 C 9.925781 19.308594 9.988281 19.28125 10.042969 19.230469 C 10.097656 19.28125 10.160156 19.308594 10.230469 19.3125 C 10.230469 19.367188 10.230469 19.421875 10.230469 19.480469 C 10.230469 19.507812 10.230469 19.535156 10.230469 19.5625 C 10.089844 19.757812 10.019531 19.980469 10.019531 20.230469 C 9.984375 20.242188 9.972656 20.269531 9.980469 20.3125 C 9.9375 20.3125 9.894531 20.3125 9.855469 20.3125 C 9.839844 20.421875 9.828125 20.535156 9.8125 20.644531 C 9.730469 20.644531 9.644531 20.644531 9.5625 20.644531 C 9.519531 20.644531 9.480469 20.644531 9.4375 20.644531 C 9.40625 20.59375 9.394531 20.539062 9.394531 20.480469 C 9.296875 20.480469 9.203125 20.480469 9.105469 20.480469 C 8.359375 20.183594 7.664062 19.785156 7.019531 19.292969 C 6.417969 18.75 5.863281 18.160156 5.355469 17.519531 C 5.320312 17.457031 5.304688 17.386719 5.3125 17.3125 C 5.203125 17.3125 5.148438 17.257812 5.144531 17.144531 C 5.101562 16.976562 5.019531 16.835938 4.894531 16.730469 C 4.867188 16.703125 4.839844 16.671875 4.8125 16.644531 C 4.722656 16.410156 4.613281 16.1875 4.480469 15.980469 C 4.277344 15.488281 4.113281 14.988281 3.980469 14.480469 C 3.941406 14.257812 3.914062 14.035156 3.894531 13.8125 C 3.828125 12.753906 3.859375 11.699219 3.980469 10.644531 C 3.980469 10.589844 3.980469 10.535156 3.980469 10.480469 C 4.042969 10.460938 4.09375 10.417969 4.125 10.355469 C 4.144531 10.230469 4.152344 10.105469 4.144531 9.980469 C 4.144531 9.953125 4.144531 9.921875 4.144531 9.894531 C 4.210938 9.828125 4.238281 9.746094 4.230469 9.644531 C 4.40625 9.082031 4.644531 8.539062 4.9375 8.019531 C 5.027344 7.882812 5.125 7.757812 5.230469 7.644531 C 5.332031 7.546875 5.441406 7.449219 5.5625 7.355469 C 5.597656 7.257812 5.625 7.160156 5.644531 7.0625 C 5.648438 7.015625 5.660156 6.976562 5.6875 6.9375 C 5.789062 6.835938 5.886719 6.738281 5.980469 6.644531 C 6.089844 6.578125 6.199219 6.550781 6.3125 6.5625 C 6.425781 6.367188 6.535156 6.171875 6.644531 5.980469 C 6.753906 5.96875 6.824219 5.914062 6.855469 5.8125 C 6.988281 5.773438 7.085938 5.691406 7.144531 5.5625 C 7.21875 5.519531 7.285156 5.519531 7.355469 5.5625 C 7.472656 5.402344 7.625 5.289062 7.8125 5.230469 C 7.808594 5.167969 7.824219 5.113281 7.855469 5.0625 C 7.894531 5.0625 7.9375 5.0625 7.980469 5.0625 C 8.15625 4.972656 8.335938 4.882812 8.519531 4.792969 C 8.597656 4.753906 8.613281 4.703125 8.5625 4.644531 C 8.914062 4.492188 9.273438 4.351562 9.644531 4.230469 Z M 9.644531 4.230469 "></path><path style="stroke: none; fill-rule: evenodd; fill: rgb(31, 108, 51); fill-opacity: 1;" d="M 15.980469 4.480469 C 16.085938 4.519531 16.183594 4.574219 16.269531 4.644531 C 16.183594 4.660156 16.101562 4.644531 16.019531 4.605469 C 15.996094 4.566406 15.980469 4.523438 15.980469 4.480469 Z M 15.980469 4.480469 "></path><use xlink:href="#surface32" mask="url(#mask9)"></use><use xlink:href="#surface35" mask="url(#mask10)"></use><path style="stroke: none; fill-rule: evenodd; fill: rgb(34, 110, 55); fill-opacity: 1;" d="M 16.269531 4.644531 C 16.402344 4.675781 16.511719 4.730469 16.605469 4.8125 C 16.449219 4.835938 16.335938 4.78125 16.269531 4.644531 Z M 16.269531 4.644531 "></path><use xlink:href="#surface38" mask="url(#mask11)"></use><path style="stroke: none; fill-rule: evenodd; fill: rgb(13, 71, 35); fill-opacity: 1;" d="M 9.980469 4.644531 C 10.042969 4.710938 10.074219 4.796875 10.0625 4.894531 C 9.996094 4.828125 9.96875 4.746094 9.980469 4.644531 Z M 9.980469 4.644531 "></path><use xlink:href="#surface41" mask="url(#mask12)"></use><path style="stroke: none; fill-rule: evenodd; fill: rgb(29, 113, 60); fill-opacity: 1;" d="M 16.644531 4.8125 C 16.738281 4.855469 16.824219 4.910156 16.894531 4.980469 C 16.8125 4.980469 16.730469 4.980469 16.644531 4.980469 C 16.644531 4.921875 16.644531 4.867188 16.644531 4.8125 Z M 16.644531 4.8125 "></path><path style="stroke: none; fill-rule: evenodd; fill: rgb(25, 125, 60); fill-opacity: 1;" d="M 8.5625 4.644531 C 8.613281 4.703125 8.597656 4.753906 8.519531 4.792969 C 8.335938 4.882812 8.15625 4.972656 7.980469 5.0625 C 7.980469 5 8.007812 4.949219 8.0625 4.917969 C 8.226562 4.816406 8.390625 4.726562 8.5625 4.644531 Z M 8.5625 4.644531 "></path><path style="stroke: none; fill-rule: evenodd; fill: rgb(26, 131, 58); fill-opacity: 1;" d="M 14.855469 4.144531 C 15.011719 4.152344 15.164062 4.179688 15.3125 4.230469 C 15.382812 4.21875 15.425781 4.246094 15.4375 4.3125 C 15.246094 4.269531 15.050781 4.242188 14.855469 4.230469 C 14.84375 4.433594 14.859375 4.632812 14.894531 4.832031 C 14.839844 4.898438 14.8125 4.976562 14.8125 5.0625 C 14.757812 5.0625 14.703125 5.0625 14.644531 5.0625 C 14.652344 5.136719 14.636719 5.207031 14.605469 5.269531 C 14.769531 5.351562 14.753906 5.390625 14.5625 5.394531 C 14.5625 5.480469 14.5625 5.5625 14.5625 5.644531 C 14.519531 5.644531 14.480469 5.644531 14.4375 5.644531 C 14.429688 5.5625 14.4375 5.476562 14.457031 5.394531 C 14.5625 5.121094 14.652344 4.84375 14.730469 4.5625 C 14.792969 4.496094 14.824219 4.414062 14.8125 4.3125 C 14.800781 4.246094 14.816406 4.191406 14.855469 4.144531 Z M 14.855469 4.144531 "></path><use xlink:href="#surface44" mask="url(#mask13)"></use><use xlink:href="#surface47" mask="url(#mask14)"></use><path style="stroke: none; fill-rule: evenodd; fill: rgb(13, 32, 10); fill-opacity: 1;" d="M 10.230469 5.3125 C 10.28125 5.363281 10.308594 5.433594 10.3125 5.519531 C 10.339844 5.765625 10.226562 5.863281 9.980469 5.8125 C 10.039062 5.742188 10.121094 5.699219 10.230469 5.6875 C 10.261719 5.566406 10.261719 5.441406 10.230469 5.3125 Z M 10.230469 5.3125 "></path><path style="stroke: none; fill-rule: evenodd; fill: rgb(29, 118, 55); fill-opacity: 1;" d="M 7.855469 5.0625 C 7.824219 5.113281 7.808594 5.167969 7.8125 5.230469 C 7.625 5.289062 7.472656 5.402344 7.355469 5.5625 C 7.285156 5.519531 7.21875 5.519531 7.144531 5.5625 C 7.359375 5.363281 7.59375 5.195312 7.855469 5.0625 Z M 7.855469 5.0625 "></path><path style="stroke: none; fill-rule: evenodd; fill: rgb(29, 106, 54); fill-opacity: 1;" d="M 7.144531 5.5625 C 7.085938 5.691406 6.988281 5.773438 6.855469 5.8125 C 6.925781 5.699219 7.023438 5.617188 7.144531 5.5625 Z M 7.144531 5.5625 "></path><path style="stroke: none; fill-rule: evenodd; fill: rgb(52, 52, 52); fill-opacity: 1;" d="M 19.3125 5.730469 C 19.46875 5.84375 19.59375 5.980469 19.6875 6.144531 C 19.609375 6.058594 19.511719 6.003906 19.394531 5.980469 C 19.355469 5.898438 19.328125 5.816406 19.3125 5.730469 Z M 19.3125 5.730469 "></path><path style="stroke: none; fill-rule: evenodd; fill: rgb(39, 107, 60); fill-opacity: 1;" d="M 6.855469 5.8125 C 6.824219 5.914062 6.753906 5.96875 6.644531 5.980469 C 6.691406 5.890625 6.761719 5.835938 6.855469 5.8125 Z M 6.855469 5.8125 "></path><path style="stroke: none; fill-rule: evenodd; fill: rgb(14, 32, 15); fill-opacity: 1;" d="M 9.9375 5.8125 C 9.871094 5.945312 9.757812 6.003906 9.605469 5.980469 C 9.6875 5.871094 9.796875 5.8125 9.9375 5.8125 Z M 9.9375 5.8125 "></path><path style="stroke: none; fill-rule: evenodd; fill: rgb(36, 101, 52); fill-opacity: 1;" d="M 17.980469 5.730469 C 18.101562 5.78125 18.199219 5.863281 18.269531 5.980469 C 18.121094 5.953125 18.023438 5.871094 17.980469 5.730469 Z M 17.980469 5.730469 "></path><path style="stroke: none; fill-rule: evenodd; fill: rgb(21, 123, 58); fill-opacity: 1;" d="M 15.4375 5.980469 C 15.578125 6 15.71875 6.035156 15.855469 6.082031 C 15.917969 6.113281 15.960938 6.164062 15.980469 6.230469 C 15.765625 6.210938 15.582031 6.125 15.4375 5.980469 Z M 15.4375 5.980469 "></path><path style="stroke: none; fill-rule: evenodd; fill: rgb(21, 68, 34); fill-opacity: 1;" d="M 18.644531 6.3125 C 18.71875 6.347656 18.773438 6.402344 18.8125 6.480469 C 18.703125 6.480469 18.648438 6.425781 18.644531 6.3125 Z M 18.644531 6.3125 "></path><path style="stroke: none; fill-rule: evenodd; fill: rgb(27, 130, 59); fill-opacity: 1;" d="M 6.644531 5.980469 C 6.535156 6.171875 6.425781 6.367188 6.3125 6.5625 C 6.199219 6.550781 6.089844 6.578125 5.980469 6.644531 C 6.144531 6.445312 6.316406 6.253906 6.5 6.0625 C 6.535156 6.007812 6.582031 5.980469 6.644531 5.980469 Z M 6.644531 5.980469 "></path><path style="stroke: none; fill-rule: evenodd; fill: rgb(27, 126, 61); fill-opacity: 1;" d="M 15.980469 6.230469 C 16.035156 6.230469 16.089844 6.230469 16.144531 6.230469 C 16.136719 6.277344 16.152344 6.320312 16.1875 6.355469 C 16.363281 6.390625 16.488281 6.488281 16.5625 6.644531 C 16.421875 6.535156 16.269531 6.445312 16.105469 6.375 C 16.039062 6.34375 15.996094 6.292969 15.980469 6.230469 Z M 15.980469 6.230469 "></path><path style="stroke: none; fill-rule: evenodd; fill: rgb(41, 40, 41); fill-opacity: 1;" d="M 19.6875 6.144531 C 19.769531 6.207031 19.84375 6.277344 19.917969 6.355469 C 20.019531 6.488281 20.109375 6.628906 20.1875 6.769531 C 20.132812 6.742188 20.082031 6.742188 20.042969 6.769531 C 19.953125 6.621094 19.867188 6.46875 19.792969 6.3125 C 19.777344 6.328125 19.765625 6.339844 19.75 6.355469 C 19.726562 6.285156 19.703125 6.214844 19.6875 6.144531 Z M 19.6875 6.144531 "></path><use xlink:href="#surface50" mask="url(#mask15)"></use><use xlink:href="#surface53" mask="url(#mask16)"></use><path style="stroke: none; fill-rule: evenodd; fill: rgb(56, 55, 55); fill-opacity: 1;" d="M 20.480469 7.1875 C 20.609375 7.320312 20.703125 7.472656 20.769531 7.644531 C 20.671875 7.59375 20.582031 7.523438 20.5 7.4375 C 20.53125 7.355469 20.527344 7.269531 20.480469 7.1875 Z M 20.480469 7.1875 "></path><path style="stroke: none; fill-rule: evenodd; fill: rgb(26, 116, 54); fill-opacity: 1;" d="M 5.644531 7.0625 C 5.625 7.160156 5.597656 7.257812 5.5625 7.355469 C 5.441406 7.449219 5.332031 7.546875 5.230469 7.644531 C 5.304688 7.402344 5.445312 7.207031 5.644531 7.0625 Z M 5.644531 7.0625 "></path><path style="stroke: none; fill-rule: evenodd; fill: rgb(71, 71, 71); fill-opacity: 1;" d="M 20.769531 7.644531 C 20.828125 7.703125 20.871094 7.773438 20.894531 7.855469 C 20.800781 7.820312 20.761719 7.75 20.769531 7.644531 Z M 20.769531 7.644531 "></path><path style="stroke: none; fill-rule: evenodd; fill: rgb(34, 116, 57); fill-opacity: 1;" d="M 6.605469 8.394531 C 6.582031 8.503906 6.527344 8.585938 6.4375 8.644531 C 6.4375 8.5625 6.4375 8.480469 6.4375 8.394531 C 6.492188 8.394531 6.546875 8.394531 6.605469 8.394531 Z M 6.605469 8.394531 "></path><path style="stroke: none; fill-rule: evenodd; fill: rgb(181, 181, 181); fill-opacity: 1;" d="M 11.355469 8.355469 C 12.089844 8.355469 12.828125 8.355469 13.5625 8.355469 C 13.5625 11.089844 13.5625 13.828125 13.5625 16.5625 C 12.828125 16.5625 12.089844 16.5625 11.355469 16.5625 C 11.355469 13.828125 11.355469 11.089844 11.355469 8.355469 Z M 11.355469 8.355469 "></path><path style="stroke: none; fill-rule: evenodd; fill: rgb(254, 254, 254); fill-opacity: 1;" d="M 11.394531 8.394531 C 12.105469 8.394531 12.8125 8.394531 13.519531 8.394531 C 13.519531 11.105469 13.519531 13.8125 13.519531 16.519531 C 12.8125 16.519531 12.105469 16.519531 11.394531 16.519531 C 11.394531 13.8125 11.394531 11.105469 11.394531 8.394531 Z M 11.394531 8.394531 "></path><path style="stroke: none; fill-rule: evenodd; fill: rgb(27, 94, 44); fill-opacity: 1;" d="M 18.6875 9.0625 C 18.730469 9.0625 18.769531 9.0625 18.8125 9.0625 C 18.8125 9.144531 18.8125 9.230469 18.8125 9.3125 C 18.75 9.242188 18.707031 9.160156 18.6875 9.0625 Z M 18.6875 9.0625 "></path><path style="stroke: none; fill-rule: evenodd; fill: rgb(25, 125, 59); fill-opacity: 1;" d="M 20.355469 8.8125 C 20.453125 9.035156 20.546875 9.253906 20.644531 9.480469 C 20.589844 9.480469 20.535156 9.480469 20.480469 9.480469 C 20.464844 9.25 20.421875 9.027344 20.355469 8.8125 Z M 20.355469 8.8125 "></path><path style="stroke: none; fill-rule: evenodd; fill: rgb(39, 99, 48); fill-opacity: 1;" d="M 4.230469 9.644531 C 4.238281 9.746094 4.210938 9.828125 4.144531 9.894531 C 4.136719 9.796875 4.164062 9.710938 4.230469 9.644531 Z M 4.230469 9.644531 "></path><path style="stroke: none; fill-rule: evenodd; fill: rgb(9, 33, 12); fill-opacity: 1;" d="M 5.980469 9.5625 C 5.964844 9.726562 5.910156 9.863281 5.8125 9.980469 C 5.832031 9.820312 5.886719 9.683594 5.980469 9.5625 Z M 5.980469 9.5625 "></path><use xlink:href="#surface56" mask="url(#mask17)"></use><path style="stroke: none; fill-rule: evenodd; fill: rgb(26, 115, 54); fill-opacity: 1;" d="M 18.980469 9.644531 C 19.03125 9.65625 19.074219 9.683594 19.105469 9.730469 C 19.171875 9.890625 19.214844 10.058594 19.230469 10.230469 C 19.109375 10.054688 19.023438 9.859375 18.980469 9.644531 Z M 18.980469 9.644531 "></path><path style="stroke: none; fill-rule: evenodd; fill: rgb(23, 122, 58); fill-opacity: 1;" d="M 5.730469 10.0625 C 5.703125 10.144531 5.6875 10.226562 5.6875 10.3125 C 5.605469 10.648438 5.519531 10.980469 5.4375 11.3125 C 5.492188 10.894531 5.546875 10.480469 5.605469 10.0625 C 5.644531 10.0625 5.6875 10.0625 5.730469 10.0625 Z M 5.730469 10.0625 "></path><path style="stroke: none; fill-rule: evenodd; fill: rgb(26, 123, 58); fill-opacity: 1;" d="M 20.644531 9.480469 C 20.777344 9.769531 20.859375 10.074219 20.894531 10.394531 C 20.84375 10.394531 20.808594 10.363281 20.792969 10.3125 C 20.777344 10.023438 20.730469 9.746094 20.644531 9.480469 Z M 20.644531 9.480469 "></path><path style="stroke: none; fill-rule: evenodd; fill: rgb(6, 62, 26); fill-opacity: 1;" d="M 5.769531 9.980469 C 5.785156 10.105469 5.757812 10.21875 5.6875 10.3125 C 5.6875 10.226562 5.703125 10.144531 5.730469 10.0625 C 5.722656 10.019531 5.734375 9.992188 5.769531 9.980469 Z M 5.769531 9.980469 "></path><path style="stroke: none; fill-rule: evenodd; fill: rgb(23, 122, 55); fill-opacity: 1;" d="M 4.144531 9.980469 C 4.152344 10.105469 4.144531 10.230469 4.125 10.355469 C 4.09375 10.417969 4.042969 10.460938 3.980469 10.480469 C 3.992188 10.339844 4.019531 10.199219 4.0625 10.0625 C 4.074219 10.011719 4.101562 9.984375 4.144531 9.980469 Z M 4.144531 9.980469 "></path><path style="stroke: none; fill-rule: evenodd; fill: rgb(28, 123, 58); fill-opacity: 1;" d="M 19.355469 10.644531 C 19.394531 10.644531 19.4375 10.644531 19.480469 10.644531 C 19.480469 10.867188 19.480469 11.089844 19.480469 11.3125 C 19.421875 11.097656 19.378906 10.875 19.355469 10.644531 Z M 19.355469 10.644531 "></path><path style="stroke: none; fill-rule: evenodd; fill: rgb(20, 123, 58); fill-opacity: 1;" d="M 20.894531 10.394531 C 20.957031 10.554688 21.007812 10.71875 21.042969 10.894531 C 21.0625 11.007812 21.070312 11.117188 21.0625 11.230469 C 21.019531 11.183594 20.984375 11.128906 20.957031 11.0625 C 20.941406 10.839844 20.921875 10.617188 20.894531 10.394531 Z M 20.894531 10.394531 "></path><use xlink:href="#surface59" mask="url(#mask18)"></use><use xlink:href="#surface62" mask="url(#mask19)"></use><use xlink:href="#surface65" mask="url(#mask20)"></use><path style="stroke: none; fill-rule: evenodd; fill: rgb(22, 137, 63); fill-opacity: 1;" d="M 3.980469 10.644531 C 3.859375 11.699219 3.828125 12.753906 3.894531 13.8125 C 3.867188 13.757812 3.839844 13.703125 3.8125 13.644531 C 3.8125 13.535156 3.8125 13.421875 3.8125 13.3125 C 3.8125 12.703125 3.8125 12.089844 3.8125 11.480469 C 3.839844 11.257812 3.867188 11.035156 3.894531 10.8125 C 3.898438 10.734375 3.925781 10.679688 3.980469 10.644531 Z M 3.980469 10.644531 "></path><path style="stroke: none; fill-rule: evenodd; fill: rgb(22, 36, 16); fill-opacity: 1;" d="M 19.480469 11.5625 C 19.542969 11.832031 19.570312 12.109375 19.5625 12.394531 C 19.5625 12.597656 19.546875 12.792969 19.519531 12.980469 C 19.527344 12.644531 19.519531 12.3125 19.5 11.980469 C 19.488281 11.925781 19.464844 11.878906 19.4375 11.832031 C 19.476562 11.75 19.488281 11.65625 19.480469 11.5625 Z M 19.480469 11.5625 "></path><path style="stroke: none; fill-rule: evenodd; fill: rgb(8, 65, 28); fill-opacity: 1;" d="M 5.394531 11.644531 C 5.394531 12.089844 5.394531 12.535156 5.394531 12.980469 C 5.285156 12.535156 5.285156 12.089844 5.394531 11.644531 Z M 5.394531 11.644531 "></path><path style="stroke: none; fill-rule: evenodd; fill: rgb(26, 96, 50); fill-opacity: 1;" d="M 3.8125 11.480469 C 3.8125 12.089844 3.8125 12.703125 3.8125 13.3125 C 3.707031 12.703125 3.707031 12.089844 3.8125 11.480469 Z M 3.8125 11.480469 "></path><path style="stroke: none; fill-rule: evenodd; fill: rgb(22, 121, 55); fill-opacity: 1;" d="M 21.105469 11.3125 C 21.152344 11.972656 21.160156 12.636719 21.125 13.3125 C 21.101562 13.542969 21.070312 13.765625 21.019531 13.980469 C 21.082031 13.09375 21.109375 12.207031 21.105469 11.3125 Z M 21.105469 11.3125 "></path><use xlink:href="#surface68" mask="url(#mask21)"></use><use xlink:href="#surface71" mask="url(#mask22)"></use><path style="stroke: none; fill-rule: evenodd; fill: rgb(69, 68, 69); fill-opacity: 1;" d="M 21.980469 13.730469 C 21.980469 13.894531 21.953125 14.046875 21.894531 14.1875 C 21.90625 14.066406 21.894531 13.945312 21.855469 13.832031 C 21.902344 13.804688 21.945312 13.769531 21.980469 13.730469 Z M 21.980469 13.730469 "></path><use xlink:href="#surface74" mask="url(#mask23)"></use><path style="stroke: none; fill-rule: evenodd; fill: rgb(15, 28, 10); fill-opacity: 1;" d="M 3.8125 13.644531 C 3.839844 13.703125 3.867188 13.757812 3.894531 13.8125 C 3.914062 14.035156 3.941406 14.257812 3.980469 14.480469 C 3.9375 14.425781 3.898438 14.371094 3.855469 14.3125 C 3.8125 14.09375 3.796875 13.871094 3.8125 13.644531 Z M 3.8125 13.644531 "></path><path style="stroke: none; fill-rule: evenodd; fill: rgb(22, 105, 48); fill-opacity: 1;" d="M 5.519531 13.980469 C 5.5625 14.140625 5.605469 14.308594 5.644531 14.480469 C 5.535156 14.335938 5.496094 14.167969 5.519531 13.980469 Z M 5.519531 13.980469 "></path><path style="stroke: none; fill-rule: evenodd; fill: rgb(27, 118, 56); fill-opacity: 1;" d="M 19.480469 13.644531 C 19.5 14.007812 19.425781 14.339844 19.25 14.644531 C 19.226562 14.898438 19.136719 15.121094 18.980469 15.3125 C 19.171875 14.761719 19.339844 14.207031 19.480469 13.644531 Z M 19.480469 13.644531 "></path><path style="stroke: none; fill-rule: evenodd; fill: rgb(57, 56, 57); fill-opacity: 1;" d="M 21.855469 14.519531 C 21.8125 14.722656 21.753906 14.917969 21.6875 15.105469 C 21.683594 14.949219 21.703125 14.796875 21.75 14.644531 C 21.765625 14.585938 21.800781 14.542969 21.855469 14.519531 Z M 21.855469 14.519531 "></path><use xlink:href="#surface77" mask="url(#mask24)"></use><path style="stroke: none; fill-rule: evenodd; fill: rgb(48, 47, 47); fill-opacity: 1;" d="M 21.6875 15.105469 C 21.664062 15.296875 21.609375 15.480469 21.519531 15.644531 C 21.445312 15.4375 21.464844 15.242188 21.582031 15.0625 C 21.609375 15.09375 21.644531 15.109375 21.6875 15.105469 Z M 21.6875 15.105469 "></path><path style="stroke: none; fill-rule: evenodd; fill: rgb(24, 115, 55); fill-opacity: 1;" d="M 6.230469 15.894531 C 6.339844 15.976562 6.394531 16.089844 6.394531 16.230469 C 6.277344 16.15625 6.21875 16.046875 6.230469 15.894531 Z M 6.230469 15.894531 "></path><path style="stroke: none; fill-rule: evenodd; fill: rgb(33, 115, 58); fill-opacity: 1;" d="M 18.644531 15.980469 C 18.617188 16.121094 18.546875 16.234375 18.4375 16.3125 C 18.464844 16.171875 18.535156 16.0625 18.644531 15.980469 Z M 18.644531 15.980469 "></path><path style="stroke: none; fill-rule: evenodd; fill: rgb(12, 25, 10); fill-opacity: 1;" d="M 4.480469 15.980469 C 4.613281 16.1875 4.722656 16.410156 4.8125 16.644531 C 4.761719 16.636719 4.71875 16.609375 4.6875 16.5625 C 4.566406 16.664062 4.539062 16.636719 4.605469 16.480469 C 4.496094 16.332031 4.453125 16.164062 4.480469 15.980469 Z M 4.480469 15.980469 "></path><path style="stroke: none; fill-rule: evenodd; fill: rgb(28, 104, 51); fill-opacity: 1;" d="M 18.4375 16.3125 C 18.433594 16.402344 18.394531 16.457031 18.3125 16.480469 C 18.316406 16.390625 18.355469 16.335938 18.4375 16.3125 Z M 18.4375 16.3125 "></path><path style="stroke: none; fill-rule: evenodd; fill: rgb(27, 90, 48); fill-opacity: 1;" d="M 18.3125 16.480469 C 18.308594 16.566406 18.269531 16.625 18.1875 16.644531 C 18.191406 16.558594 18.230469 16.5 18.3125 16.480469 Z M 18.3125 16.480469 "></path><path style="stroke: none; fill-rule: evenodd; fill: rgb(29, 101, 50); fill-opacity: 1;" d="M 4.894531 16.730469 C 5.019531 16.835938 5.101562 16.976562 5.144531 17.144531 C 5.023438 17.039062 4.9375 16.898438 4.894531 16.730469 Z M 4.894531 16.730469 "></path><path style="stroke: none; fill-rule: evenodd; fill: rgb(24, 102, 51); fill-opacity: 1;" d="M 18.1875 16.644531 C 18.195312 16.824219 18.113281 16.9375 17.9375 16.980469 C 17.988281 16.84375 18.074219 16.734375 18.1875 16.644531 Z M 18.1875 16.644531 "></path><use xlink:href="#surface80" mask="url(#mask25)"></use><path style="stroke: none; fill-rule: evenodd; fill: rgb(26, 96, 51); fill-opacity: 1;" d="M 17.8125 17.144531 C 17.785156 17.230469 17.730469 17.285156 17.644531 17.3125 C 17.660156 17.214844 17.714844 17.160156 17.8125 17.144531 Z M 17.8125 17.144531 "></path><path style="stroke: none; fill-rule: evenodd; fill: rgb(46, 44, 45); fill-opacity: 1;" d="M 20.894531 17.019531 C 20.773438 17.304688 20.621094 17.570312 20.4375 17.8125 C 20.449219 17.714844 20.421875 17.632812 20.355469 17.5625 C 20.421875 17.609375 20.484375 17.609375 20.542969 17.5625 C 20.566406 17.523438 20.558594 17.488281 20.519531 17.457031 C 20.5625 17.445312 20.605469 17.429688 20.644531 17.417969 C 20.585938 17.398438 20.5625 17.363281 20.582031 17.3125 C 20.613281 17.351562 20.648438 17.359375 20.6875 17.332031 C 20.675781 17.1875 20.746094 17.082031 20.894531 17.019531 Z M 20.894531 17.019531 "></path><use xlink:href="#surface83" mask="url(#mask26)"></use><use xlink:href="#surface86" mask="url(#mask27)"></use><use xlink:href="#surface89" mask="url(#mask28)"></use><path style="stroke: none; fill-rule: evenodd; fill: rgb(26, 131, 60); fill-opacity: 1;" d="M 17.644531 17.3125 C 17.617188 17.414062 17.574219 17.511719 17.519531 17.605469 C 17.382812 17.6875 17.269531 17.800781 17.1875 17.9375 C 17.230469 17.964844 17.269531 17.992188 17.3125 18.019531 C 17.074219 18.054688 16.851562 18.121094 16.644531 18.230469 C 17 17.945312 17.335938 17.640625 17.644531 17.3125 Z M 17.644531 17.3125 "></path><use xlink:href="#surface92" mask="url(#mask29)"></use><path style="stroke: none; fill-rule: evenodd; fill: rgb(13, 54, 25); fill-opacity: 1;" d="M 19.019531 18.144531 C 18.988281 18.25 18.933594 18.332031 18.855469 18.394531 C 18.871094 18.28125 18.925781 18.195312 19.019531 18.144531 Z M 19.019531 18.144531 "></path><path style="stroke: none; fill-rule: evenodd; fill: rgb(28, 118, 57); fill-opacity: 1;" d="M 16.644531 18.230469 C 16.636719 18.28125 16.609375 18.324219 16.5625 18.355469 C 16.46875 18.410156 16.371094 18.449219 16.269531 18.480469 C 16.363281 18.351562 16.488281 18.265625 16.644531 18.230469 Z M 16.644531 18.230469 "></path><use xlink:href="#surface95" mask="url(#mask30)"></use><use xlink:href="#surface98" mask="url(#mask31)"></use><path style="stroke: none; fill-rule: evenodd; fill: rgb(30, 110, 53); fill-opacity: 1;" d="M 8.980469 18.644531 C 9.152344 18.699219 9.304688 18.78125 9.4375 18.894531 C 9.207031 18.941406 9.054688 18.855469 8.980469 18.644531 Z M 8.980469 18.644531 "></path><path style="stroke: none; fill-rule: evenodd; fill: rgb(49, 49, 49); fill-opacity: 1;" d="M 19.8125 18.644531 C 19.679688 18.828125 19.527344 18.996094 19.355469 19.144531 C 19.324219 19.078125 19.316406 19.007812 19.332031 18.9375 C 19.351562 19 19.386719 19.019531 19.4375 19 C 19.421875 18.984375 19.410156 18.972656 19.394531 18.957031 C 19.464844 18.917969 19.519531 18.863281 19.5625 18.792969 C 19.601562 18.742188 19.601562 18.703125 19.5625 18.667969 C 19.636719 18.605469 19.722656 18.601562 19.8125 18.644531 Z M 19.8125 18.644531 "></path><path style="stroke: none; fill-rule: evenodd; fill: rgb(30, 114, 57); fill-opacity: 1;" d="M 15.980469 18.644531 C 15.976562 18.691406 15.964844 18.734375 15.9375 18.769531 C 15.734375 18.832031 15.539062 18.914062 15.355469 19.019531 C 15.273438 19.0625 15.191406 19.074219 15.105469 19.0625 C 15.375 18.890625 15.667969 18.753906 15.980469 18.644531 Z M 15.980469 18.644531 "></path><path style="stroke: none; fill-rule: evenodd; fill: rgb(10, 41, 16); fill-opacity: 1;" d="M 18.230469 18.980469 C 18.199219 19.082031 18.128906 19.136719 18.019531 19.144531 C 18.066406 19.058594 18.136719 19.003906 18.230469 18.980469 Z M 18.230469 18.980469 "></path><path style="stroke: none; fill-rule: evenodd; fill: rgb(37, 105, 54); fill-opacity: 1;" d="M 15.0625 19.0625 C 14.953125 19.183594 14.8125 19.238281 14.644531 19.230469 C 14.722656 19.175781 14.808594 19.128906 14.894531 19.082031 C 14.949219 19.0625 15.003906 19.054688 15.0625 19.0625 Z M 15.0625 19.0625 "></path><path style="stroke: none; fill-rule: evenodd; fill: rgb(28, 123, 56); fill-opacity: 1;" d="M 9.605469 18.980469 C 9.785156 19.027344 9.96875 19.082031 10.144531 19.144531 C 10.21875 19.195312 10.257812 19.261719 10.269531 19.355469 C 10.269531 19.40625 10.257812 19.445312 10.230469 19.480469 C 10.230469 19.421875 10.230469 19.367188 10.230469 19.3125 C 10.160156 19.308594 10.097656 19.28125 10.042969 19.230469 C 9.988281 19.28125 9.925781 19.308594 9.855469 19.3125 C 9.863281 19.25 9.851562 19.195312 9.8125 19.144531 C 9.730469 19.097656 9.660156 19.042969 9.605469 18.980469 Z M 9.605469 18.980469 "></path><path style="stroke: none; fill-rule: evenodd; fill: rgb(12, 34, 15); fill-opacity: 1;" d="M 10.144531 19.144531 C 10.265625 19.136719 10.363281 19.175781 10.4375 19.269531 C 10.402344 19.308594 10.363281 19.320312 10.3125 19.3125 C 10.332031 19.421875 10.304688 19.503906 10.230469 19.5625 C 10.230469 19.535156 10.230469 19.507812 10.230469 19.480469 C 10.257812 19.445312 10.269531 19.40625 10.269531 19.355469 C 10.257812 19.261719 10.21875 19.195312 10.144531 19.144531 Z M 10.144531 19.144531 "></path><path style="stroke: none; fill-rule: evenodd; fill: rgb(56, 55, 56); fill-opacity: 1;" d="M 5.605469 19.1875 C 5.714844 19.230469 5.816406 19.285156 5.917969 19.355469 C 6.035156 19.335938 6.042969 19.371094 5.9375 19.457031 C 6.015625 19.53125 6.085938 19.605469 6.144531 19.6875 C 5.941406 19.550781 5.757812 19.382812 5.605469 19.1875 Z M 5.605469 19.1875 "></path><path style="stroke: none; fill-rule: evenodd; fill: rgb(47, 46, 47); fill-opacity: 1;" d="M 19.355469 19.144531 C 19.101562 19.453125 18.808594 19.71875 18.480469 19.9375 C 18.46875 19.816406 18.523438 19.753906 18.644531 19.75 C 18.617188 19.734375 18.589844 19.722656 18.5625 19.707031 C 18.613281 19.671875 18.648438 19.621094 18.667969 19.5625 C 18.734375 19.5625 18.804688 19.5625 18.875 19.5625 C 18.902344 19.523438 18.894531 19.488281 18.855469 19.457031 C 18.914062 19.367188 18.996094 19.316406 19.105469 19.3125 C 19.152344 19.238281 19.199219 19.167969 19.25 19.105469 C 19.277344 19.136719 19.3125 19.148438 19.355469 19.144531 Z M 19.355469 19.144531 "></path><path style="stroke: none; fill-rule: evenodd; fill: rgb(33, 121, 63); fill-opacity: 1;" d="M 14.644531 19.230469 C 14.632812 19.292969 14.589844 19.320312 14.519531 19.3125 C 14.542969 19.449219 14.558594 19.589844 14.5625 19.730469 C 14.496094 19.574219 14.453125 19.40625 14.4375 19.230469 C 14.507812 19.230469 14.578125 19.230469 14.644531 19.230469 Z M 14.644531 19.230469 "></path><path style="stroke: none; fill-rule: evenodd; fill: rgb(10, 24, 11); fill-opacity: 1;" d="M 18.019531 19.144531 C 18.011719 19.234375 17.96875 19.304688 17.894531 19.355469 C 17.921875 19.382812 17.953125 19.410156 17.980469 19.4375 C 17.824219 19.484375 17.671875 19.523438 17.519531 19.5625 C 17.519531 19.617188 17.519531 19.671875 17.519531 19.730469 C 17.453125 19.730469 17.382812 19.730469 17.3125 19.730469 C 17.3125 19.703125 17.3125 19.671875 17.3125 19.644531 C 17.558594 19.496094 17.796875 19.332031 18.019531 19.144531 Z M 18.019531 19.144531 "></path><path style="stroke: none; fill-rule: evenodd; fill: rgb(28, 121, 55); fill-opacity: 1;" d="M 17.3125 19.644531 C 17.3125 19.671875 17.3125 19.703125 17.3125 19.730469 C 17.140625 19.78125 16.988281 19.863281 16.855469 19.980469 C 16.789062 20.019531 16.71875 20.046875 16.644531 20.0625 C 16.660156 19.996094 16.699219 19.96875 16.769531 19.980469 C 16.769531 19.921875 16.769531 19.867188 16.769531 19.8125 C 16.855469 19.8125 16.9375 19.8125 17.019531 19.8125 C 17.019531 19.757812 17.019531 19.703125 17.019531 19.644531 C 17.117188 19.644531 17.214844 19.644531 17.3125 19.644531 Z M 17.3125 19.644531 "></path><path style="stroke: none; fill-rule: evenodd; fill: rgb(16, 74, 31); fill-opacity: 1;" d="M 10.230469 19.5625 C 10.160156 19.789062 10.089844 20.011719 10.019531 20.230469 C 10.019531 19.980469 10.089844 19.757812 10.230469 19.5625 Z M 10.230469 19.5625 "></path><use xlink:href="#surface101" mask="url(#mask32)"></use><path style="stroke: none; fill-rule: evenodd; fill: rgb(12, 24, 10); fill-opacity: 1;" d="M 16.855469 19.980469 C 16.855469 20.035156 16.855469 20.089844 16.855469 20.144531 C 16.722656 20.203125 16.582031 20.230469 16.4375 20.230469 C 16.445312 20.285156 16.4375 20.34375 16.417969 20.394531 C 16.386719 20.335938 16.339844 20.308594 16.269531 20.3125 C 16.375 20.199219 16.5 20.117188 16.644531 20.0625 C 16.71875 20.046875 16.789062 20.019531 16.855469 19.980469 Z M 16.855469 19.980469 "></path><use xlink:href="#surface104" mask="url(#mask33)"></use><use xlink:href="#surface107" mask="url(#mask34)"></use><path style="stroke: none; fill-rule: evenodd; fill: rgb(26, 104, 50); fill-opacity: 1;" d="M 9.105469 20.480469 C 9.203125 20.480469 9.296875 20.480469 9.394531 20.480469 C 9.394531 20.539062 9.40625 20.59375 9.4375 20.644531 C 9.316406 20.601562 9.207031 20.546875 9.105469 20.480469 Z M 9.105469 20.480469 "></path><use xlink:href="#surface110" mask="url(#mask35)"></use><path style="stroke: none; fill-rule: evenodd; fill: rgb(28, 123, 62); fill-opacity: 1;" d="M 9.980469 20.3125 C 9.929688 20.433594 9.890625 20.558594 9.855469 20.6875 C 9.8125 20.703125 9.769531 20.714844 9.730469 20.730469 C 9.652344 20.734375 9.597656 20.707031 9.5625 20.644531 C 9.644531 20.644531 9.730469 20.644531 9.8125 20.644531 C 9.828125 20.535156 9.839844 20.421875 9.855469 20.3125 C 9.894531 20.3125 9.9375 20.3125 9.980469 20.3125 Z M 9.980469 20.3125 "></path><path style="stroke: none; fill-rule: evenodd; fill: rgb(47, 46, 47); fill-opacity: 1;" d="M 17.9375 20.355469 C 17.640625 20.578125 17.320312 20.773438 16.980469 20.9375 C 17.09375 20.832031 17.203125 20.722656 17.3125 20.605469 C 17.378906 20.542969 17.449219 20.53125 17.519531 20.5625 C 17.550781 20.476562 17.597656 20.40625 17.667969 20.355469 C 17.75 20.375 17.839844 20.375 17.9375 20.355469 Z M 17.9375 20.355469 "></path><use xlink:href="#surface113" mask="url(#mask36)"></use><path style="stroke: none; fill-rule: evenodd; fill: rgb(25, 92, 43); fill-opacity: 1;" d="M 15.3125 20.644531 C 15.261719 20.710938 15.191406 20.761719 15.105469 20.792969 C 15.054688 20.796875 15.007812 20.804688 14.957031 20.8125 C 14.886719 20.808594 14.839844 20.78125 14.8125 20.730469 C 14.980469 20.714844 15.148438 20.6875 15.3125 20.644531 Z M 15.3125 20.644531 "></path><path style="stroke: none; fill-rule: evenodd; fill: rgb(31, 31, 31); fill-opacity: 1;" d="M 8.9375 21.394531 C 8.402344 21.210938 7.902344 20.960938 7.4375 20.644531 C 7.484375 20.644531 7.523438 20.628906 7.5625 20.605469 C 7.554688 20.648438 7.574219 20.6875 7.625 20.730469 C 7.707031 20.683594 7.796875 20.691406 7.894531 20.75 C 7.851562 20.878906 7.890625 20.914062 8.019531 20.855469 C 8.078125 20.894531 8.113281 20.9375 8.125 20.980469 C 8.144531 20.964844 8.167969 20.953125 8.1875 20.9375 C 8.125 20.878906 8.140625 20.851562 8.230469 20.855469 C 8.246094 20.933594 8.316406 20.988281 8.4375 21.019531 C 8.503906 20.988281 8.574219 20.972656 8.644531 20.980469 C 8.644531 21.035156 8.644531 21.089844 8.644531 21.144531 C 8.785156 21.179688 8.882812 21.265625 8.9375 21.394531 Z M 8.9375 21.394531 "></path><use xlink:href="#surface116" mask="url(#mask37)"></use><path style="stroke: none; fill-rule: evenodd; fill: rgb(56, 55, 56); fill-opacity: 1;" d="M 15.855469 21.4375 C 15.664062 21.546875 15.453125 21.617188 15.230469 21.644531 C 15.296875 21.492188 15.410156 21.453125 15.5625 21.519531 C 15.648438 21.449219 15.742188 21.421875 15.855469 21.4375 Z M 15.855469 21.4375 "></path><path style="stroke: none; fill-rule: evenodd; fill: rgb(58, 58, 58); fill-opacity: 1;" d="M 15.230469 21.644531 C 15.046875 21.726562 14.851562 21.78125 14.644531 21.8125 C 14.765625 21.757812 14.882812 21.6875 15 21.605469 C 15.070312 21.640625 15.148438 21.65625 15.230469 21.644531 Z M 15.230469 21.644531 "></path><use xlink:href="#surface119" mask="url(#mask38)"></use><use xlink:href="#surface122" mask="url(#mask39)"></use><use xlink:href="#surface125" mask="url(#mask40)"></use></g></svg>